<?xml version="1.0" encoding="utf-8" standalone="no"?>
<!DOCTYPE svg PUBLIC "-//W3C//DTD SVG 1.1//EN"
  "http://www.w3.org/Graphics/SVG/1.1/DTD/svg11.dtd">
<svg xmlns:xlink="http://www.w3.org/1999/xlink" width="357.277781pt" height="230.005638pt" viewBox="0 0 357.277781 230.005638" xmlns="http://www.w3.org/2000/svg" version="1.1">
 <metadata>
  <rdf:RDF xmlns:dc="http://purl.org/dc/elements/1.1/" xmlns:cc="http://creativecommons.org/ns#" xmlns:rdf="http://www.w3.org/1999/02/22-rdf-syntax-ns#">
   <cc:Work>
    <dc:type rdf:resource="http://purl.org/dc/dcmitype/StillImage"/>
    <dc:date>2022-11-11T18:56:50.494241</dc:date>
    <dc:format>image/svg+xml</dc:format>
    <dc:creator>
     <cc:Agent>
      <dc:title>Matplotlib v3.5.1, https://matplotlib.org/</dc:title>
     </cc:Agent>
    </dc:creator>
   </cc:Work>
  </rdf:RDF>
 </metadata>
 <defs>
  <style type="text/css">*{stroke-linejoin: round; stroke-linecap: butt}</style>
 </defs>
 <g id="figure_1">
  <g id="patch_1">
   <path d="M 0 230.005638 
L 357.277781 230.005638 
L 357.277781 0 
L 0 0 
L 0 230.005638 
z
" style="fill: none"/>
  </g>
  <g id="axes_1">
   <g id="patch_2">
    <path d="M 41.235938 193.779701 
L 350.077781 193.779701 
L 350.077781 7.830745 
L 41.235938 7.830745 
z
" style="fill: #ffffff"/>
   </g>
   <g id="matplotlib.axis_1">
    <g id="xtick_1">
     <g id="line2d_1">
      <path d="M 55.274203 193.779701 
L 55.274203 7.830745 
" clip-path="url(#p4b0ddff8de)" style="fill: none; stroke-dasharray: 1.85,0.8; stroke-dashoffset: 0; stroke: #b0b0b0; stroke-width: 0.5"/>
     </g>
     <g id="line2d_2">
      <defs>
       <path id="m1161f5fe29" d="M 0 0 
L 0 3.5 
" style="stroke: #000000; stroke-width: 0.8"/>
      </defs>
      <g>
       <use xlink:href="#m1161f5fe29" x="55.274203" y="193.779701" style="stroke: #000000; stroke-width: 0.8"/>
      </g>
     </g>
     <g id="text_1">
      <!-- 0 -->
      <g transform="translate(53.274203 208.177201)scale(0.08 -0.08)">
       <defs>
        <path id="TimesNewRomanPS-BoldMT-30" d="M 2966 2119 
Q 2966 1484 2788 934 
Q 2681 597 2501 381 
Q 2322 166 2094 39 
Q 1866 -88 1597 -88 
Q 1291 -88 1044 68 
Q 797 225 606 516 
Q 469 728 366 1081 
Q 231 1559 231 2069 
Q 231 2759 425 3338 
Q 584 3816 909 4070 
Q 1234 4325 1597 4325 
Q 1966 4325 2286 4073 
Q 2606 3822 2756 3397 
Q 2966 2813 2966 2119 
z
M 2003 2125 
Q 2003 3238 1991 3422 
Q 1959 3856 1841 4009 
Q 1763 4109 1588 4109 
Q 1453 4109 1375 4034 
Q 1259 3925 1218 3648 
Q 1178 3372 1178 1719 
Q 1178 819 1241 513 
Q 1288 291 1375 216 
Q 1463 141 1606 141 
Q 1763 141 1841 241 
Q 1972 416 1991 781 
L 2003 2125 
z
" transform="scale(0.015625)"/>
       </defs>
       <use xlink:href="#TimesNewRomanPS-BoldMT-30"/>
      </g>
     </g>
    </g>
    <g id="xtick_2">
     <g id="line2d_3">
      <path d="M 172.25975 193.779701 
L 172.25975 7.830745 
" clip-path="url(#p4b0ddff8de)" style="fill: none; stroke-dasharray: 1.85,0.8; stroke-dashoffset: 0; stroke: #b0b0b0; stroke-width: 0.5"/>
     </g>
     <g id="line2d_4">
      <g>
       <use xlink:href="#m1161f5fe29" x="172.25975" y="193.779701" style="stroke: #000000; stroke-width: 0.8"/>
      </g>
     </g>
     <g id="text_2">
      <!-- 5 -->
      <g transform="translate(170.25975 208.177201)scale(0.08 -0.08)">
       <defs>
        <path id="TimesNewRomanPS-BoldMT-35" d="M 975 4238 
L 2959 4238 
L 2644 3431 
L 975 3431 
L 816 3009 
Q 1894 2969 2475 2472 
Q 2953 2063 2953 1453 
Q 2953 1063 2731 689 
Q 2509 316 2106 114 
Q 1703 -88 1222 -88 
Q 703 -88 425 106 
Q 231 244 231 419 
Q 231 553 332 656 
Q 434 759 569 759 
Q 691 759 816 709 
Q 941 659 1244 447 
Q 1434 316 1572 266 
Q 1669 228 1791 228 
Q 2047 228 2226 415 
Q 2406 603 2406 866 
Q 2406 1416 1856 1759 
Q 1306 2103 469 2103 
Q 384 2103 216 2100 
L 975 4238 
z
" transform="scale(0.015625)"/>
       </defs>
       <use xlink:href="#TimesNewRomanPS-BoldMT-35"/>
      </g>
     </g>
    </g>
    <g id="xtick_3">
     <g id="line2d_5">
      <path d="M 289.245296 193.779701 
L 289.245296 7.830745 
" clip-path="url(#p4b0ddff8de)" style="fill: none; stroke-dasharray: 1.85,0.8; stroke-dashoffset: 0; stroke: #b0b0b0; stroke-width: 0.5"/>
     </g>
     <g id="line2d_6">
      <g>
       <use xlink:href="#m1161f5fe29" x="289.245296" y="193.779701" style="stroke: #000000; stroke-width: 0.8"/>
      </g>
     </g>
     <g id="text_3">
      <!-- 10 -->
      <g transform="translate(285.245296 208.177201)scale(0.08 -0.08)">
       <defs>
        <path id="TimesNewRomanPS-BoldMT-31" d="M 2084 4325 
L 2084 859 
Q 2084 469 2118 361 
Q 2153 253 2262 184 
Q 2372 116 2613 116 
L 2709 116 
L 2709 0 
L 478 0 
L 478 116 
L 591 116 
Q 863 116 978 178 
Q 1094 241 1134 350 
Q 1175 459 1175 859 
L 1175 3056 
Q 1175 3350 1147 3423 
Q 1119 3497 1042 3548 
Q 966 3600 866 3600 
Q 706 3600 478 3500 
L 422 3613 
L 1981 4325 
L 2084 4325 
z
" transform="scale(0.015625)"/>
       </defs>
       <use xlink:href="#TimesNewRomanPS-BoldMT-31"/>
       <use xlink:href="#TimesNewRomanPS-BoldMT-30" x="50"/>
      </g>
     </g>
    </g>
    <g id="text_4">
     <!-- Experiment Time (12 Hours In Total) -->
     <g transform="translate(115.963109 220.666576)scale(0.1 -0.1)">
      <defs>
       <path id="TimesNewRomanPS-BoldMT-45" d="M 1744 3994 
L 1744 2269 
L 1828 2269 
Q 2231 2269 2412 2522 
Q 2594 2775 2644 3269 
L 2763 3269 
L 2763 1050 
L 2644 1050 
Q 2606 1413 2486 1644 
Q 2366 1875 2206 1954 
Q 2047 2034 1744 2034 
L 1744 841 
Q 1744 491 1773 412 
Q 1803 334 1884 284 
Q 1966 234 2147 234 
L 2400 234 
Q 2994 234 3351 509 
Q 3709 784 3866 1347 
L 3981 1347 
L 3791 0 
L 128 0 
L 128 116 
L 269 116 
Q 453 116 566 181 
Q 647 225 691 331 
Q 725 406 725 725 
L 725 3513 
Q 725 3800 709 3866 
Q 678 3975 594 4034 
Q 475 4122 269 4122 
L 128 4122 
L 128 4238 
L 3675 4238 
L 3675 2984 
L 3556 2984 
Q 3466 3444 3302 3644 
Q 3138 3844 2838 3938 
Q 2663 3994 2181 3994 
L 1744 3994 
z
" transform="scale(0.015625)"/>
       <path id="TimesNewRomanPS-BoldMT-78" d="M 1944 1791 
L 2450 828 
Q 2713 325 2866 191 
Q 2950 119 3097 113 
L 3097 0 
L 1469 0 
L 1469 113 
Q 1659 128 1704 162 
Q 1750 197 1750 256 
Q 1750 344 1650 531 
L 1397 1006 
L 1181 691 
Q 1034 475 1016 434 
Q 991 375 991 328 
Q 991 256 1020 207 
Q 1050 159 1101 136 
Q 1153 113 1291 113 
L 1291 0 
L 147 0 
L 147 113 
Q 359 113 536 230 
Q 713 347 1050 844 
L 1291 1200 
L 788 2131 
Q 541 2588 419 2691 
Q 297 2794 147 2806 
L 147 2922 
L 1766 2922 
L 1766 2806 
L 1681 2803 
L 1519 2747 
Q 1494 2725 1494 2675 
Q 1494 2628 1509 2578 
Q 1519 2556 1597 2409 
L 1825 1984 
L 1944 2153 
Q 2194 2497 2194 2634 
Q 2194 2700 2139 2745 
Q 2084 2791 1944 2806 
L 1944 2922 
L 2978 2922 
L 2978 2806 
Q 2788 2800 2622 2689 
Q 2456 2578 2250 2259 
L 1944 1791 
z
" transform="scale(0.015625)"/>
       <path id="TimesNewRomanPS-BoldMT-70" d="M 1347 297 
L 1347 -791 
Q 1347 -1016 1383 -1097 
Q 1419 -1178 1494 -1215 
Q 1569 -1253 1788 -1253 
L 1788 -1369 
L 122 -1369 
L 122 -1253 
Q 316 -1247 409 -1144 
Q 472 -1072 472 -772 
L 472 2313 
Q 472 2622 400 2708 
Q 328 2794 122 2806 
L 122 2922 
L 1347 2922 
L 1347 2538 
Q 1500 2763 1659 2863 
Q 1888 3009 2156 3009 
Q 2478 3009 2742 2806 
Q 3006 2603 3143 2245 
Q 3281 1888 3281 1475 
Q 3281 1031 3139 664 
Q 2997 297 2726 104 
Q 2456 -88 2125 -88 
Q 1884 -88 1675 19 
Q 1519 100 1347 297 
z
M 1347 613 
Q 1616 231 1922 231 
Q 2091 231 2200 409 
Q 2363 672 2363 1409 
Q 2363 2166 2184 2444 
Q 2066 2628 1866 2628 
Q 1550 2628 1347 2172 
L 1347 613 
z
" transform="scale(0.015625)"/>
       <path id="TimesNewRomanPS-BoldMT-65" d="M 2691 1566 
L 1088 1566 
Q 1116 984 1397 647 
Q 1613 388 1916 388 
Q 2103 388 2256 492 
Q 2409 597 2584 869 
L 2691 800 
Q 2453 316 2165 114 
Q 1878 -88 1500 -88 
Q 850 -88 516 413 
Q 247 816 247 1413 
Q 247 2144 642 2576 
Q 1038 3009 1569 3009 
Q 2013 3009 2339 2645 
Q 2666 2281 2691 1566 
z
M 1922 1775 
Q 1922 2278 1867 2465 
Q 1813 2653 1697 2750 
Q 1631 2806 1522 2806 
Q 1359 2806 1256 2647 
Q 1072 2369 1072 1884 
L 1072 1775 
L 1922 1775 
z
" transform="scale(0.015625)"/>
       <path id="TimesNewRomanPS-BoldMT-72" d="M 1428 2922 
L 1428 2259 
Q 1719 2713 1937 2861 
Q 2156 3009 2359 3009 
Q 2534 3009 2639 2901 
Q 2744 2794 2744 2597 
Q 2744 2388 2642 2272 
Q 2541 2156 2397 2156 
Q 2231 2156 2109 2262 
Q 1988 2369 1966 2381 
Q 1934 2400 1894 2400 
Q 1803 2400 1722 2331 
Q 1594 2225 1528 2028 
Q 1428 1725 1428 1359 
L 1428 688 
L 1431 513 
Q 1431 334 1453 284 
Q 1491 200 1564 161 
Q 1638 122 1813 113 
L 1813 0 
L 234 0 
L 234 113 
Q 425 128 492 217 
Q 559 306 559 688 
L 559 2303 
Q 559 2553 534 2622 
Q 503 2709 443 2750 
Q 384 2791 234 2806 
L 234 2922 
L 1428 2922 
z
" transform="scale(0.015625)"/>
       <path id="TimesNewRomanPS-BoldMT-69" d="M 919 4338 
Q 1122 4338 1262 4195 
Q 1403 4053 1403 3853 
Q 1403 3653 1261 3512 
Q 1119 3372 919 3372 
Q 719 3372 578 3512 
Q 438 3653 438 3853 
Q 438 4053 578 4195 
Q 719 4338 919 4338 
z
M 1356 2922 
L 1356 606 
Q 1356 297 1428 211 
Q 1500 125 1709 113 
L 1709 0 
L 131 0 
L 131 113 
Q 325 119 419 225 
Q 481 297 481 606 
L 481 2313 
Q 481 2622 409 2708 
Q 338 2794 131 2806 
L 131 2922 
L 1356 2922 
z
" transform="scale(0.015625)"/>
       <path id="TimesNewRomanPS-BoldMT-6d" d="M 1428 2922 
L 1428 2538 
Q 1669 2800 1873 2904 
Q 2078 3009 2322 3009 
Q 2603 3009 2793 2878 
Q 2984 2747 3088 2478 
Q 3338 2759 3567 2884 
Q 3797 3009 4047 3009 
Q 4350 3009 4529 2870 
Q 4709 2731 4779 2517 
Q 4850 2303 4850 1834 
L 4850 638 
Q 4850 300 4911 219 
Q 4972 138 5166 113 
L 5166 0 
L 3656 0 
L 3656 113 
Q 3834 128 3919 250 
Q 3975 334 3975 638 
L 3975 1894 
Q 3975 2284 3944 2390 
Q 3913 2497 3845 2548 
Q 3778 2600 3688 2600 
Q 3553 2600 3415 2501 
Q 3278 2403 3138 2206 
L 3138 638 
Q 3138 322 3191 241 
Q 3263 125 3466 113 
L 3466 0 
L 1953 0 
L 1953 113 
Q 2075 119 2145 173 
Q 2216 228 2239 304 
Q 2263 381 2263 638 
L 2263 1894 
Q 2263 2291 2231 2391 
Q 2200 2491 2126 2547 
Q 2053 2603 1969 2603 
Q 1844 2603 1741 2538 
Q 1594 2441 1428 2206 
L 1428 638 
Q 1428 328 1489 229 
Q 1550 131 1744 113 
L 1744 0 
L 238 0 
L 238 113 
Q 422 131 500 231 
Q 553 300 553 638 
L 553 2288 
Q 553 2619 492 2700 
Q 431 2781 238 2806 
L 238 2922 
L 1428 2922 
z
" transform="scale(0.015625)"/>
       <path id="TimesNewRomanPS-BoldMT-6e" d="M 1409 2922 
L 1409 2544 
Q 1634 2788 1840 2898 
Q 2047 3009 2284 3009 
Q 2569 3009 2756 2851 
Q 2944 2694 3006 2459 
Q 3056 2281 3056 1775 
L 3056 638 
Q 3056 300 3117 217 
Q 3178 134 3372 113 
L 3372 0 
L 1894 0 
L 1894 113 
Q 2059 134 2131 250 
Q 2181 328 2181 638 
L 2181 1938 
Q 2181 2297 2153 2390 
Q 2125 2484 2058 2536 
Q 1991 2588 1909 2588 
Q 1641 2588 1409 2203 
L 1409 638 
Q 1409 309 1470 221 
Q 1531 134 1697 113 
L 1697 0 
L 219 0 
L 219 113 
Q 403 131 481 231 
Q 534 300 534 638 
L 534 2288 
Q 534 2619 473 2700 
Q 413 2781 219 2806 
L 219 2922 
L 1409 2922 
z
" transform="scale(0.015625)"/>
       <path id="TimesNewRomanPS-BoldMT-74" d="M 1375 3991 
L 1375 2922 
L 2069 2922 
L 2069 2613 
L 1375 2613 
L 1375 809 
Q 1375 556 1398 482 
Q 1422 409 1481 364 
Q 1541 319 1591 319 
Q 1794 319 1975 628 
L 2069 559 
Q 1816 -41 1247 -41 
Q 969 -41 776 114 
Q 584 269 531 459 
Q 500 566 500 1034 
L 500 2613 
L 119 2613 
L 119 2722 
Q 513 3000 789 3306 
Q 1066 3613 1272 3991 
L 1375 3991 
z
" transform="scale(0.015625)"/>
       <path id="TimesNewRomanPS-BoldMT-20" transform="scale(0.015625)"/>
       <path id="TimesNewRomanPS-BoldMT-54" d="M 4038 4238 
L 4038 3091 
L 3925 3091 
Q 3825 3488 3703 3661 
Q 3581 3834 3369 3938 
Q 3250 3994 2953 3994 
L 2638 3994 
L 2638 725 
Q 2638 400 2673 319 
Q 2709 238 2814 177 
Q 2919 116 3100 116 
L 3241 116 
L 3241 0 
L 1022 0 
L 1022 116 
L 1163 116 
Q 1347 116 1459 181 
Q 1541 225 1588 331 
Q 1622 406 1622 725 
L 1622 3994 
L 1316 3994 
Q 888 3994 694 3813 
Q 422 3559 350 3091 
L 231 3091 
L 231 4238 
L 4038 4238 
z
" transform="scale(0.015625)"/>
       <path id="TimesNewRomanPS-BoldMT-28" d="M 2056 4334 
L 2056 4191 
Q 1731 3978 1578 3775 
Q 1366 3494 1247 3053 
Q 1097 2506 1097 1525 
Q 1097 600 1233 87 
Q 1369 -425 1603 -741 
Q 1766 -959 2056 -1125 
L 2056 -1281 
Q 1303 -1028 779 -248 
Q 256 531 256 1544 
Q 256 2544 778 3314 
Q 1300 4084 2056 4334 
z
" transform="scale(0.015625)"/>
       <path id="TimesNewRomanPS-BoldMT-32" d="M 2650 0 
L 156 0 
L 156 69 
Q 1303 1434 1548 1906 
Q 1794 2378 1794 2828 
Q 1794 3156 1591 3373 
Q 1388 3591 1094 3591 
Q 613 3591 347 3109 
L 231 3150 
Q 400 3750 744 4037 
Q 1088 4325 1538 4325 
Q 1859 4325 2125 4175 
Q 2391 4025 2541 3764 
Q 2691 3503 2691 3275 
Q 2691 2859 2459 2431 
Q 2144 1853 1081 819 
L 1997 819 
Q 2334 819 2436 847 
Q 2538 875 2603 942 
Q 2669 1009 2775 1225 
L 2888 1225 
L 2650 0 
z
" transform="scale(0.015625)"/>
       <path id="TimesNewRomanPS-BoldMT-48" d="M 1750 2038 
L 1750 725 
Q 1750 400 1786 319 
Q 1822 238 1926 177 
Q 2031 116 2209 116 
L 2350 116 
L 2350 0 
L 134 0 
L 134 116 
L 275 116 
Q 459 116 572 181 
Q 653 225 697 331 
Q 731 406 731 725 
L 731 3513 
Q 731 3838 697 3919 
Q 663 4000 558 4061 
Q 453 4122 275 4122 
L 134 4122 
L 134 4238 
L 2350 4238 
L 2350 4122 
L 2209 4122 
Q 2025 4122 1913 4056 
Q 1831 4013 1784 3906 
Q 1750 3831 1750 3513 
L 1750 2313 
L 3247 2313 
L 3247 3513 
Q 3247 3838 3212 3919 
Q 3178 4000 3072 4061 
Q 2966 4122 2788 4122 
L 2650 4122 
L 2650 4238 
L 4863 4238 
L 4863 4122 
L 4725 4122 
Q 4538 4122 4428 4056 
Q 4347 4013 4300 3906 
Q 4266 3831 4266 3513 
L 4266 725 
Q 4266 400 4300 319 
Q 4334 238 4440 177 
Q 4547 116 4725 116 
L 4863 116 
L 4863 0 
L 2650 0 
L 2650 116 
L 2788 116 
Q 2975 116 3084 181 
Q 3166 225 3213 331 
Q 3247 406 3247 725 
L 3247 2038 
L 1750 2038 
z
" transform="scale(0.015625)"/>
       <path id="TimesNewRomanPS-BoldMT-6f" d="M 1594 3009 
Q 1975 3009 2303 2812 
Q 2631 2616 2801 2253 
Q 2972 1891 2972 1459 
Q 2972 838 2656 419 
Q 2275 -88 1603 -88 
Q 944 -88 587 375 
Q 231 838 231 1447 
Q 231 2075 595 2542 
Q 959 3009 1594 3009 
z
M 1606 2788 
Q 1447 2788 1333 2667 
Q 1219 2547 1183 2192 
Q 1147 1838 1147 1206 
Q 1147 872 1191 581 
Q 1225 359 1337 243 
Q 1450 128 1594 128 
Q 1734 128 1828 206 
Q 1950 313 1991 503 
Q 2053 800 2053 1703 
Q 2053 2234 1993 2432 
Q 1934 2631 1819 2722 
Q 1738 2788 1606 2788 
z
" transform="scale(0.015625)"/>
       <path id="TimesNewRomanPS-BoldMT-75" d="M 3038 2922 
L 3038 634 
Q 3038 300 3100 217 
Q 3163 134 3353 113 
L 3353 0 
L 2163 0 
L 2163 391 
Q 1953 141 1743 26 
Q 1534 -88 1275 -88 
Q 1028 -88 836 64 
Q 644 216 578 419 
Q 513 622 513 1128 
L 513 2288 
Q 513 2619 452 2700 
Q 391 2781 197 2806 
L 197 2922 
L 1388 2922 
L 1388 925 
Q 1388 613 1417 522 
Q 1447 431 1511 384 
Q 1575 338 1659 338 
Q 1772 338 1863 397 
Q 1988 478 2163 725 
L 2163 2288 
Q 2163 2619 2102 2700 
Q 2041 2781 1847 2806 
L 1847 2922 
L 3038 2922 
z
" transform="scale(0.015625)"/>
       <path id="TimesNewRomanPS-BoldMT-73" d="M 2063 3003 
L 2109 2006 
L 2003 2006 
Q 1813 2450 1608 2612 
Q 1403 2775 1200 2775 
Q 1072 2775 981 2689 
Q 891 2603 891 2491 
Q 891 2406 953 2328 
Q 1053 2200 1512 1889 
Q 1972 1578 2117 1361 
Q 2263 1144 2263 875 
Q 2263 631 2141 397 
Q 2019 163 1797 37 
Q 1575 -88 1306 -88 
Q 1097 -88 747 44 
Q 653 78 619 78 
Q 516 78 447 -78 
L 344 -78 
L 294 972 
L 400 972 
Q 541 559 786 353 
Q 1031 147 1250 147 
Q 1400 147 1495 239 
Q 1591 331 1591 463 
Q 1591 613 1497 722 
Q 1403 831 1078 1053 
Q 600 1384 459 1559 
Q 253 1816 253 2125 
Q 253 2463 486 2736 
Q 719 3009 1159 3009 
Q 1397 3009 1619 2894 
Q 1703 2847 1756 2847 
Q 1813 2847 1847 2870 
Q 1881 2894 1956 3003 
L 2063 3003 
z
" transform="scale(0.015625)"/>
       <path id="TimesNewRomanPS-BoldMT-49" d="M 2344 116 
L 2344 0 
L 128 0 
L 128 116 
L 269 116 
Q 453 116 566 181 
Q 647 225 691 331 
Q 725 406 725 725 
L 725 3513 
Q 725 3838 690 3919 
Q 656 4000 551 4061 
Q 447 4122 269 4122 
L 128 4122 
L 128 4238 
L 2344 4238 
L 2344 4122 
L 2203 4122 
Q 2019 4122 1906 4056 
Q 1825 4013 1778 3906 
Q 1744 3831 1744 3513 
L 1744 725 
Q 1744 400 1780 319 
Q 1816 238 1920 177 
Q 2025 116 2203 116 
L 2344 116 
z
" transform="scale(0.015625)"/>
       <path id="TimesNewRomanPS-BoldMT-61" d="M 1828 431 
Q 1294 -41 869 -41 
Q 619 -41 453 123 
Q 288 288 288 534 
Q 288 869 575 1136 
Q 863 1403 1828 1847 
L 1828 2141 
Q 1828 2472 1792 2558 
Q 1756 2644 1656 2708 
Q 1556 2772 1431 2772 
Q 1228 2772 1097 2681 
Q 1016 2625 1016 2550 
Q 1016 2484 1103 2388 
Q 1222 2253 1222 2128 
Q 1222 1975 1108 1867 
Q 994 1759 809 1759 
Q 613 1759 480 1878 
Q 347 1997 347 2156 
Q 347 2381 525 2586 
Q 703 2791 1022 2900 
Q 1341 3009 1684 3009 
Q 2100 3009 2342 2832 
Q 2584 2656 2656 2450 
Q 2700 2319 2700 1847 
L 2700 713 
Q 2700 513 2715 461 
Q 2731 409 2762 384 
Q 2794 359 2834 359 
Q 2916 359 3000 475 
L 3094 400 
Q 2938 169 2770 64 
Q 2603 -41 2391 -41 
Q 2141 -41 2000 76 
Q 1859 194 1828 431 
z
M 1828 659 
L 1828 1638 
Q 1450 1416 1266 1163 
Q 1144 994 1144 822 
Q 1144 678 1247 569 
Q 1325 484 1466 484 
Q 1622 484 1828 659 
z
" transform="scale(0.015625)"/>
       <path id="TimesNewRomanPS-BoldMT-6c" d="M 1359 4238 
L 1359 606 
Q 1359 297 1431 211 
Q 1503 125 1713 113 
L 1713 0 
L 134 0 
L 134 113 
Q 328 119 422 225 
Q 484 297 484 606 
L 484 3631 
Q 484 3938 412 4023 
Q 341 4109 134 4122 
L 134 4238 
L 1359 4238 
z
" transform="scale(0.015625)"/>
       <path id="TimesNewRomanPS-BoldMT-29" d="M 78 -1281 
L 78 -1138 
Q 403 -922 556 -719 
Q 766 -438 888 0 
Q 1038 550 1038 1531 
Q 1038 2456 902 2967 
Q 766 3478 531 3794 
Q 369 4013 78 4178 
L 78 4334 
Q 831 4081 1354 3301 
Q 1878 2522 1878 1509 
Q 1878 513 1354 -257 
Q 831 -1028 78 -1281 
z
" transform="scale(0.015625)"/>
      </defs>
      <use xlink:href="#TimesNewRomanPS-BoldMT-45"/>
      <use xlink:href="#TimesNewRomanPS-BoldMT-78" x="66.699219"/>
      <use xlink:href="#TimesNewRomanPS-BoldMT-70" x="116.699219"/>
      <use xlink:href="#TimesNewRomanPS-BoldMT-65" x="172.314453"/>
      <use xlink:href="#TimesNewRomanPS-BoldMT-72" x="216.699219"/>
      <use xlink:href="#TimesNewRomanPS-BoldMT-69" x="261.083984"/>
      <use xlink:href="#TimesNewRomanPS-BoldMT-6d" x="288.867188"/>
      <use xlink:href="#TimesNewRomanPS-BoldMT-65" x="372.167969"/>
      <use xlink:href="#TimesNewRomanPS-BoldMT-6e" x="416.552734"/>
      <use xlink:href="#TimesNewRomanPS-BoldMT-74" x="472.167969"/>
      <use xlink:href="#TimesNewRomanPS-BoldMT-20" x="505.46875"/>
      <use xlink:href="#TimesNewRomanPS-BoldMT-54" x="528.71875"/>
      <use xlink:href="#TimesNewRomanPS-BoldMT-69" x="593.667969"/>
      <use xlink:href="#TimesNewRomanPS-BoldMT-6d" x="621.451172"/>
      <use xlink:href="#TimesNewRomanPS-BoldMT-65" x="704.751953"/>
      <use xlink:href="#TimesNewRomanPS-BoldMT-20" x="749.136719"/>
      <use xlink:href="#TimesNewRomanPS-BoldMT-28" x="774.136719"/>
      <use xlink:href="#TimesNewRomanPS-BoldMT-31" x="807.4375"/>
      <use xlink:href="#TimesNewRomanPS-BoldMT-32" x="857.4375"/>
      <use xlink:href="#TimesNewRomanPS-BoldMT-20" x="907.4375"/>
      <use xlink:href="#TimesNewRomanPS-BoldMT-48" x="932.4375"/>
      <use xlink:href="#TimesNewRomanPS-BoldMT-6f" x="1010.220703"/>
      <use xlink:href="#TimesNewRomanPS-BoldMT-75" x="1060.220703"/>
      <use xlink:href="#TimesNewRomanPS-BoldMT-72" x="1115.835938"/>
      <use xlink:href="#TimesNewRomanPS-BoldMT-73" x="1160.220703"/>
      <use xlink:href="#TimesNewRomanPS-BoldMT-20" x="1199.136719"/>
      <use xlink:href="#TimesNewRomanPS-BoldMT-49" x="1224.136719"/>
      <use xlink:href="#TimesNewRomanPS-BoldMT-6e" x="1263.052734"/>
      <use xlink:href="#TimesNewRomanPS-BoldMT-20" x="1318.667969"/>
      <use xlink:href="#TimesNewRomanPS-BoldMT-54" x="1341.917969"/>
      <use xlink:href="#TimesNewRomanPS-BoldMT-6f" x="1399.492188"/>
      <use xlink:href="#TimesNewRomanPS-BoldMT-74" x="1449.492188"/>
      <use xlink:href="#TimesNewRomanPS-BoldMT-61" x="1482.792969"/>
      <use xlink:href="#TimesNewRomanPS-BoldMT-6c" x="1532.792969"/>
      <use xlink:href="#TimesNewRomanPS-BoldMT-29" x="1560.576172"/>
     </g>
    </g>
   </g>
   <g id="matplotlib.axis_2">
    <g id="ytick_1">
     <g id="line2d_7">
      <path d="M 41.235938 185.327475 
L 350.077781 185.327475 
" clip-path="url(#p4b0ddff8de)" style="fill: none; stroke-dasharray: 1.85,0.8; stroke-dashoffset: 0; stroke: #b0b0b0; stroke-width: 0.5"/>
     </g>
     <g id="line2d_8">
      <defs>
       <path id="mb94904eeaf" d="M 0 0 
L -3.5 0 
" style="stroke: #000000; stroke-width: 0.8"/>
      </defs>
      <g>
       <use xlink:href="#mb94904eeaf" x="41.235938" y="185.327475" style="stroke: #000000; stroke-width: 0.8"/>
      </g>
     </g>
     <g id="text_5">
      <!-- 0 -->
      <g transform="translate(28.135938 187.976225)scale(0.08 -0.08)">
       <use xlink:href="#TimesNewRomanPS-BoldMT-30"/>
      </g>
     </g>
    </g>
    <g id="ytick_2">
     <g id="line2d_9">
      <path d="M 41.235938 156.081021 
L 350.077781 156.081021 
" clip-path="url(#p4b0ddff8de)" style="fill: none; stroke-dasharray: 1.85,0.8; stroke-dashoffset: 0; stroke: #b0b0b0; stroke-width: 0.5"/>
     </g>
     <g id="line2d_10">
      <g>
       <use xlink:href="#mb94904eeaf" x="41.235938" y="156.081021" style="stroke: #000000; stroke-width: 0.8"/>
      </g>
     </g>
     <g id="text_6">
      <!-- 50 -->
      <g transform="translate(24.135938 158.729771)scale(0.08 -0.08)">
       <use xlink:href="#TimesNewRomanPS-BoldMT-35"/>
       <use xlink:href="#TimesNewRomanPS-BoldMT-30" x="50"/>
      </g>
     </g>
    </g>
    <g id="ytick_3">
     <g id="line2d_11">
      <path d="M 41.235938 126.834567 
L 350.077781 126.834567 
" clip-path="url(#p4b0ddff8de)" style="fill: none; stroke-dasharray: 1.85,0.8; stroke-dashoffset: 0; stroke: #b0b0b0; stroke-width: 0.5"/>
     </g>
     <g id="line2d_12">
      <g>
       <use xlink:href="#mb94904eeaf" x="41.235938" y="126.834567" style="stroke: #000000; stroke-width: 0.8"/>
      </g>
     </g>
     <g id="text_7">
      <!-- 100 -->
      <g transform="translate(20.135938 129.483317)scale(0.08 -0.08)">
       <use xlink:href="#TimesNewRomanPS-BoldMT-31"/>
       <use xlink:href="#TimesNewRomanPS-BoldMT-30" x="50"/>
       <use xlink:href="#TimesNewRomanPS-BoldMT-30" x="100"/>
      </g>
     </g>
    </g>
    <g id="ytick_4">
     <g id="line2d_13">
      <path d="M 41.235938 97.588113 
L 350.077781 97.588113 
" clip-path="url(#p4b0ddff8de)" style="fill: none; stroke-dasharray: 1.85,0.8; stroke-dashoffset: 0; stroke: #b0b0b0; stroke-width: 0.5"/>
     </g>
     <g id="line2d_14">
      <g>
       <use xlink:href="#mb94904eeaf" x="41.235938" y="97.588113" style="stroke: #000000; stroke-width: 0.8"/>
      </g>
     </g>
     <g id="text_8">
      <!-- 150 -->
      <g transform="translate(20.135938 100.236863)scale(0.08 -0.08)">
       <use xlink:href="#TimesNewRomanPS-BoldMT-31"/>
       <use xlink:href="#TimesNewRomanPS-BoldMT-35" x="50"/>
       <use xlink:href="#TimesNewRomanPS-BoldMT-30" x="100"/>
      </g>
     </g>
    </g>
    <g id="ytick_5">
     <g id="line2d_15">
      <path d="M 41.235938 68.341658 
L 350.077781 68.341658 
" clip-path="url(#p4b0ddff8de)" style="fill: none; stroke-dasharray: 1.85,0.8; stroke-dashoffset: 0; stroke: #b0b0b0; stroke-width: 0.5"/>
     </g>
     <g id="line2d_16">
      <g>
       <use xlink:href="#mb94904eeaf" x="41.235938" y="68.341658" style="stroke: #000000; stroke-width: 0.8"/>
      </g>
     </g>
     <g id="text_9">
      <!-- 200 -->
      <g transform="translate(20.135938 70.990408)scale(0.08 -0.08)">
       <use xlink:href="#TimesNewRomanPS-BoldMT-32"/>
       <use xlink:href="#TimesNewRomanPS-BoldMT-30" x="50"/>
       <use xlink:href="#TimesNewRomanPS-BoldMT-30" x="100"/>
      </g>
     </g>
    </g>
    <g id="ytick_6">
     <g id="line2d_17">
      <path d="M 41.235938 39.095204 
L 350.077781 39.095204 
" clip-path="url(#p4b0ddff8de)" style="fill: none; stroke-dasharray: 1.85,0.8; stroke-dashoffset: 0; stroke: #b0b0b0; stroke-width: 0.5"/>
     </g>
     <g id="line2d_18">
      <g>
       <use xlink:href="#mb94904eeaf" x="41.235938" y="39.095204" style="stroke: #000000; stroke-width: 0.8"/>
      </g>
     </g>
     <g id="text_10">
      <!-- 250 -->
      <g transform="translate(20.135938 41.743954)scale(0.08 -0.08)">
       <use xlink:href="#TimesNewRomanPS-BoldMT-32"/>
       <use xlink:href="#TimesNewRomanPS-BoldMT-35" x="50"/>
       <use xlink:href="#TimesNewRomanPS-BoldMT-30" x="100"/>
      </g>
     </g>
    </g>
    <g id="ytick_7">
     <g id="line2d_19">
      <path d="M 41.235938 9.84875 
L 350.077781 9.84875 
" clip-path="url(#p4b0ddff8de)" style="fill: none; stroke-dasharray: 1.85,0.8; stroke-dashoffset: 0; stroke: #b0b0b0; stroke-width: 0.5"/>
     </g>
     <g id="line2d_20">
      <g>
       <use xlink:href="#mb94904eeaf" x="41.235938" y="9.84875" style="stroke: #000000; stroke-width: 0.8"/>
      </g>
     </g>
     <g id="text_11">
      <!-- 300 -->
      <g transform="translate(20.135938 12.4975)scale(0.08 -0.08)">
       <defs>
        <path id="TimesNewRomanPS-BoldMT-33" d="M 947 2125 
L 947 2234 
Q 1303 2338 1440 2427 
Q 1578 2516 1678 2698 
Q 1778 2881 1778 3069 
Q 1778 3328 1589 3514 
Q 1400 3700 1119 3700 
Q 681 3700 375 3238 
L 259 3278 
Q 484 3800 836 4062 
Q 1188 4325 1619 4325 
Q 2059 4325 2345 4056 
Q 2631 3788 2631 3428 
Q 2631 3194 2498 2976 
Q 2366 2759 2081 2594 
Q 2447 2416 2639 2155 
Q 2831 1894 2831 1500 
Q 2831 838 2351 373 
Q 1872 -91 1066 -91 
Q 528 -91 281 88 
Q 103 213 103 409 
Q 103 553 206 654 
Q 309 756 444 756 
Q 547 756 638 713 
Q 688 688 992 439 
Q 1297 191 1563 191 
Q 1794 191 1959 373 
Q 2125 556 2125 838 
Q 2125 1266 1825 1627 
Q 1525 1988 947 2125 
z
" transform="scale(0.015625)"/>
       </defs>
       <use xlink:href="#TimesNewRomanPS-BoldMT-33"/>
       <use xlink:href="#TimesNewRomanPS-BoldMT-30" x="50"/>
       <use xlink:href="#TimesNewRomanPS-BoldMT-30" x="100"/>
      </g>
     </g>
    </g>
    <g id="text_12">
     <!-- Discrepancy Detection Number -->
     <g transform="translate(13.978125 167.64741)rotate(-90)scale(0.1 -0.1)">
      <defs>
       <path id="TimesNewRomanPS-BoldMT-44" d="M 84 0 
L 84 116 
L 225 116 
Q 409 116 507 173 
Q 606 231 653 331 
Q 681 397 681 725 
L 681 3513 
Q 681 3838 647 3919 
Q 613 4000 508 4061 
Q 403 4122 225 4122 
L 84 4122 
L 84 4238 
L 1981 4238 
Q 2741 4238 3203 4031 
Q 3769 3778 4061 3265 
Q 4353 2753 4353 2106 
Q 4353 1659 4209 1282 
Q 4066 906 3837 661 
Q 3609 416 3311 267 
Q 3013 119 2581 38 
Q 2391 0 1981 0 
L 84 0 
z
M 1700 3997 
L 1700 691 
Q 1700 428 1725 368 
Q 1750 309 1809 278 
Q 1894 231 2053 231 
Q 2575 231 2850 588 
Q 3225 1069 3225 2081 
Q 3225 2897 2969 3384 
Q 2766 3766 2447 3903 
Q 2222 4000 1700 3997 
z
" transform="scale(0.015625)"/>
       <path id="TimesNewRomanPS-BoldMT-63" d="M 2600 753 
L 2697 678 
Q 2491 291 2183 101 
Q 1875 -88 1528 -88 
Q 944 -88 594 353 
Q 244 794 244 1413 
Q 244 2009 563 2463 
Q 947 3009 1622 3009 
Q 2075 3009 2342 2781 
Q 2609 2553 2609 2272 
Q 2609 2094 2501 1987 
Q 2394 1881 2219 1881 
Q 2034 1881 1914 2003 
Q 1794 2125 1766 2438 
Q 1747 2634 1675 2713 
Q 1603 2791 1506 2791 
Q 1356 2791 1250 2631 
Q 1088 2391 1088 1894 
Q 1088 1481 1219 1104 
Q 1350 728 1578 544 
Q 1750 409 1984 409 
Q 2138 409 2275 481 
Q 2413 553 2600 753 
z
" transform="scale(0.015625)"/>
       <path id="TimesNewRomanPS-BoldMT-79" d="M 1556 -119 
L 613 2047 
Q 400 2538 298 2650 
Q 197 2763 53 2806 
L 53 2922 
L 1606 2922 
L 1606 2806 
Q 1453 2800 1390 2747 
Q 1328 2694 1328 2619 
Q 1328 2500 1484 2150 
L 1984 1006 
L 2325 1891 
Q 2509 2363 2509 2547 
Q 2509 2663 2432 2731 
Q 2356 2800 2163 2806 
L 2163 2922 
L 3141 2922 
L 3141 2806 
Q 2997 2791 2906 2695 
Q 2816 2600 2603 2047 
L 1769 -119 
Q 1453 -931 1300 -1119 
Q 1084 -1381 759 -1381 
Q 500 -1381 339 -1232 
Q 178 -1084 178 -875 
Q 178 -694 289 -575 
Q 400 -456 563 -456 
Q 719 -456 814 -556 
Q 909 -656 913 -866 
Q 916 -984 941 -1019 
Q 966 -1053 1013 -1053 
Q 1088 -1053 1172 -963 
Q 1297 -831 1466 -363 
L 1556 -119 
z
" transform="scale(0.015625)"/>
       <path id="TimesNewRomanPS-BoldMT-4e" d="M 1594 4238 
L 3684 1609 
L 3684 3431 
Q 3684 3813 3575 3947 
Q 3425 4128 3072 4122 
L 3072 4238 
L 4472 4238 
L 4472 4122 
Q 4203 4088 4111 4033 
Q 4019 3978 3967 3854 
Q 3916 3731 3916 3431 
L 3916 -97 
L 3809 -97 
L 944 3431 
L 944 738 
Q 944 372 1111 244 
Q 1278 116 1494 116 
L 1594 116 
L 1594 0 
L 91 0 
L 91 116 
Q 441 119 578 259 
Q 716 400 716 738 
L 716 3728 
L 625 3841 
Q 491 4009 387 4062 
Q 284 4116 91 4122 
L 91 4238 
L 1594 4238 
z
" transform="scale(0.015625)"/>
       <path id="TimesNewRomanPS-BoldMT-62" d="M 1347 4238 
L 1347 2628 
Q 1716 3009 2153 3009 
Q 2453 3009 2718 2832 
Q 2984 2656 3134 2331 
Q 3284 2006 3284 1581 
Q 3284 1103 3093 712 
Q 2903 322 2584 117 
Q 2266 -88 1856 -88 
Q 1619 -88 1434 -12 
Q 1250 63 1072 231 
L 588 -84 
L 481 -84 
L 481 3631 
Q 481 3884 459 3944 
Q 428 4031 361 4073 
Q 294 4116 134 4122 
L 134 4238 
L 1347 4238 
z
M 1347 2350 
L 1347 1050 
Q 1347 653 1366 544 
Q 1397 359 1515 245 
Q 1634 131 1819 131 
Q 1978 131 2092 222 
Q 2206 313 2282 581 
Q 2359 850 2359 1550 
Q 2359 2222 2191 2472 
Q 2069 2653 1863 2653 
Q 1594 2653 1347 2350 
z
" transform="scale(0.015625)"/>
      </defs>
      <use xlink:href="#TimesNewRomanPS-BoldMT-44"/>
      <use xlink:href="#TimesNewRomanPS-BoldMT-69" x="72.216797"/>
      <use xlink:href="#TimesNewRomanPS-BoldMT-73" x="100"/>
      <use xlink:href="#TimesNewRomanPS-BoldMT-63" x="138.916016"/>
      <use xlink:href="#TimesNewRomanPS-BoldMT-72" x="183.300781"/>
      <use xlink:href="#TimesNewRomanPS-BoldMT-65" x="225.935547"/>
      <use xlink:href="#TimesNewRomanPS-BoldMT-70" x="270.320312"/>
      <use xlink:href="#TimesNewRomanPS-BoldMT-61" x="325.935547"/>
      <use xlink:href="#TimesNewRomanPS-BoldMT-6e" x="375.935547"/>
      <use xlink:href="#TimesNewRomanPS-BoldMT-63" x="431.550781"/>
      <use xlink:href="#TimesNewRomanPS-BoldMT-79" x="475.935547"/>
      <use xlink:href="#TimesNewRomanPS-BoldMT-20" x="525.935547"/>
      <use xlink:href="#TimesNewRomanPS-BoldMT-44" x="550.935547"/>
      <use xlink:href="#TimesNewRomanPS-BoldMT-65" x="623.152344"/>
      <use xlink:href="#TimesNewRomanPS-BoldMT-74" x="667.537109"/>
      <use xlink:href="#TimesNewRomanPS-BoldMT-65" x="700.837891"/>
      <use xlink:href="#TimesNewRomanPS-BoldMT-63" x="745.222656"/>
      <use xlink:href="#TimesNewRomanPS-BoldMT-74" x="789.607422"/>
      <use xlink:href="#TimesNewRomanPS-BoldMT-69" x="822.908203"/>
      <use xlink:href="#TimesNewRomanPS-BoldMT-6f" x="850.691406"/>
      <use xlink:href="#TimesNewRomanPS-BoldMT-6e" x="900.691406"/>
      <use xlink:href="#TimesNewRomanPS-BoldMT-20" x="956.306641"/>
      <use xlink:href="#TimesNewRomanPS-BoldMT-4e" x="981.306641"/>
      <use xlink:href="#TimesNewRomanPS-BoldMT-75" x="1053.523438"/>
      <use xlink:href="#TimesNewRomanPS-BoldMT-6d" x="1109.138672"/>
      <use xlink:href="#TimesNewRomanPS-BoldMT-62" x="1192.439453"/>
      <use xlink:href="#TimesNewRomanPS-BoldMT-65" x="1248.054688"/>
      <use xlink:href="#TimesNewRomanPS-BoldMT-72" x="1292.439453"/>
     </g>
    </g>
   </g>
   <g id="line2d_21">
    <path d="M 55.274203 185.327475 
L 55.469184 185.327475 
L 55.586172 184.742546 
L 55.696661 184.742546 
L 55.813649 184.157617 
L 56.054125 184.157617 
L 56.171113 183.572688 
L 58.718857 183.572688 
L 58.835846 182.987759 
L 59.609268 182.987759 
L 59.726256 182.40283 
L 63.183909 182.40283 
L 63.300897 181.817901 
L 63.736354 181.817901 
L 63.853342 181.232972 
L 63.957331 181.232972 
L 64.07432 180.648043 
L 66.329593 180.648043 
L 66.446581 180.063114 
L 67.109515 180.063114 
L 67.226503 179.478185 
L 67.505975 179.478185 
L 67.622963 178.893255 
L 68.097416 178.893255 
L 68.220903 177.723397 
L 68.474378 177.723397 
L 68.591366 177.138468 
L 68.857839 177.138468 
L 68.974828 176.553539 
L 71.412083 176.553539 
L 71.529071 175.96861 
L 72.101014 175.96861 
L 72.218002 175.383681 
L 73.693354 175.383681 
L 73.810342 174.798752 
L 76.72205 174.798752 
L 76.839038 173.628894 
L 77.358986 173.628894 
L 77.475974 173.043965 
L 77.534468 173.043965 
L 77.651456 172.459036 
L 80.387682 172.459036 
L 80.50467 171.874106 
L 80.511169 171.874106 
L 80.628158 171.289177 
L 82.922427 171.289177 
L 83.039416 170.704248 
L 84.644754 170.704248 
L 84.761743 170.119319 
L 85.866632 170.119319 
L 85.98362 169.53439 
L 87.686449 169.53439 
L 87.809937 168.364532 
L 88.082909 168.364532 
L 88.199897 167.779603 
L 88.96682 167.779603 
L 89.083809 167.194674 
L 89.350282 167.194674 
L 89.46727 166.609745 
L 90.754141 166.609745 
L 90.871129 166.024816 
L 93.093906 166.024816 
L 93.210894 165.439887 
L 93.782837 165.439887 
L 93.899825 164.854957 
L 94.74474 164.854957 
L 94.861729 164.270028 
L 95.316683 164.270028 
L 95.433671 163.685099 
L 98.936819 163.685099 
L 99.060307 162.515241 
L 102.342478 162.515241 
L 102.459466 161.930312 
L 102.725939 161.930312 
L 102.842927 161.345383 
L 103.830828 161.345383 
L 103.947816 160.760454 
L 104.565254 160.760454 
L 104.682243 160.175525 
L 104.760235 160.175525 
L 104.883722 159.005667 
L 105.117699 159.005667 
L 105.234687 158.420738 
L 105.397171 158.420738 
L 105.514159 157.835808 
L 107.39897 157.835808 
L 107.515958 157.250879 
L 109.608748 157.250879 
L 109.738735 155.496092 
L 109.99221 155.496092 
L 110.122197 153.741305 
L 111.721036 153.741305 
L 111.838024 153.156376 
L 111.870521 153.156376 
L 111.987509 152.571447 
L 112.47496 152.571447 
L 112.591949 151.986518 
L 113.157392 151.986518 
L 113.27438 151.401588 
L 113.77483 151.401588 
L 113.891818 150.816659 
L 119.006805 150.816659 
L 119.130292 149.646801 
L 122.158988 149.646801 
L 122.275976 149.061872 
L 122.321472 149.061872 
L 122.43846 148.476943 
L 124.43376 148.476943 
L 124.550748 147.892014 
L 125.837619 147.892014 
L 125.954607 147.307085 
L 128.788322 147.307085 
L 128.91181 146.137227 
L 129.672234 146.137227 
L 129.789222 145.552298 
L 133.760323 145.552298 
L 133.877312 144.967369 
L 134.663733 144.967369 
L 134.780721 144.382439 
L 134.956203 144.382439 
L 135.079691 143.212581 
L 136.269071 143.212581 
L 136.38606 142.627652 
L 137.607937 142.627652 
L 137.724925 142.042723 
L 138.394358 142.042723 
L 138.511346 141.457794 
L 140.409156 141.457794 
L 140.532643 140.287936 
L 140.539143 140.287936 
L 140.66263 139.118078 
L 141.826014 139.118078 
L 141.943002 138.533149 
L 141.975499 138.533149 
L 142.092487 137.94822 
L 143.528843 137.94822 
L 143.645831 137.36329 
L 143.912304 137.36329 
L 144.029292 136.778361 
L 144.789716 136.778361 
L 144.906704 136.193432 
L 145.361659 136.193432 
L 145.478647 135.608503 
L 147.265967 135.608503 
L 147.382956 135.023574 
L 148.149879 135.023574 
L 148.266867 134.438645 
L 149.956697 134.438645 
L 150.073685 133.853716 
L 150.82761 133.853716 
L 150.944598 133.268787 
L 152.9204 133.268787 
L 153.037388 132.683858 
L 154.220269 132.683858 
L 154.337257 132.098929 
L 154.785712 132.098929 
L 154.9092 130.929071 
L 155.565634 130.929071 
L 155.682622 130.344141 
L 156.618528 130.344141 
L 156.735517 129.759212 
L 157.586931 129.759212 
L 157.703919 129.174283 
L 158.464343 129.174283 
L 158.587831 128.004425 
L 160.531136 128.004425 
L 160.648124 127.419496 
L 160.804108 127.419496 
L 160.921096 126.834567 
L 161.636025 126.834567 
L 161.753013 126.249638 
L 164.723215 126.249638 
L 164.840203 125.664709 
L 165.425144 125.664709 
L 165.548632 124.494851 
L 166.36105 124.494851 
L 166.478039 123.909922 
L 166.614525 123.909922 
L 166.731513 123.324992 
L 167.543932 123.324992 
L 167.66092 122.740063 
L 167.771409 122.740063 
L 167.888397 122.155134 
L 170.007184 122.155134 
L 170.130672 120.985276 
L 171.904994 120.985276 
L 172.021982 120.400347 
L 172.892894 120.400347 
L 173.009883 119.815418 
L 173.763807 119.815418 
L 173.880795 119.230489 
L 173.939289 119.230489 
L 174.056278 118.64556 
L 175.642118 118.64556 
L 175.759107 118.060631 
L 176.701512 118.060631 
L 176.8185 117.475702 
L 177.637418 117.475702 
L 177.754406 116.890772 
L 178.527829 116.890772 
L 178.644817 116.305843 
L 181.153565 116.305843 
L 181.270553 115.720914 
L 181.40704 115.720914 
L 181.524028 115.135985 
L 181.556525 115.135985 
L 181.673513 114.551056 
L 181.907489 114.551056 
L 182.024478 113.966127 
L 182.914888 113.966127 
L 183.038376 112.796269 
L 183.29185 112.796269 
L 183.408839 112.21134 
L 184.331746 112.21134 
L 184.448734 111.626411 
L 185.69011 111.626411 
L 185.807098 111.041482 
L 186.639014 111.041482 
L 186.762502 109.871623 
L 187.223956 109.871623 
L 187.340944 109.286694 
L 189.128264 109.286694 
L 189.245253 108.701765 
L 190.56462 108.701765 
L 190.694607 106.946978 
L 191.591517 106.946978 
L 191.708505 106.362049 
L 192.936882 106.362049 
L 193.05387 105.77712 
L 194.431732 105.77712 
L 194.54872 104.607262 
L 199.481725 104.607262 
L 199.605213 103.437404 
L 200.079665 103.437404 
L 200.196653 102.852474 
L 200.294143 102.852474 
L 200.411132 102.267545 
L 200.52812 102.267545 
L 200.645108 101.682616 
L 200.697103 101.682616 
L 200.820591 100.512758 
L 202.042468 100.512758 
L 202.159456 99.927829 
L 202.172455 99.927829 
L 202.289443 99.3429 
L 203.888283 99.3429 
L 204.005271 98.757971 
L 204.10926 98.757971 
L 204.232748 97.588113 
L 204.785193 97.588113 
L 204.902181 97.003184 
L 205.675603 97.003184 
L 205.792591 96.418255 
L 206.247546 96.418255 
L 206.371033 95.248396 
L 206.546516 95.248396 
L 206.663504 94.663467 
L 208.119358 94.663467 
L 208.236346 94.078538 
L 208.827787 94.078538 
L 208.944775 93.493609 
L 209.09426 93.493609 
L 209.211248 92.90868 
L 211.499019 92.90868 
L 211.616007 92.323751 
L 211.681 92.323751 
L 211.797989 91.738822 
L 211.830485 91.738822 
L 211.947474 91.153893 
L 212.408927 91.153893 
L 212.525915 90.568964 
L 213.364331 90.568964 
L 213.48132 89.984035 
L 214.300237 89.984035 
L 214.417226 89.399106 
L 216.185048 89.399106 
L 216.302036 88.814176 
L 217.907375 88.814176 
L 218.037362 87.059389 
L 219.376228 87.059389 
L 219.493216 86.47446 
L 219.740191 86.47446 
L 219.857179 85.889531 
L 221.228542 85.889531 
L 221.34553 85.304602 
L 221.884976 85.304602 
L 222.001964 84.719673 
L 224.751188 84.719673 
L 224.868176 84.134744 
L 226.590503 84.134744 
L 226.707492 83.549815 
L 226.928469 83.549815 
L 227.045458 82.964886 
L 230.821579 82.964886 
L 230.938567 82.379956 
L 231.114049 82.379956 
L 231.231037 81.795027 
L 232.231937 81.795027 
L 232.348925 81.210098 
L 234.051754 81.210098 
L 234.168743 80.625169 
L 235.228136 80.625169 
L 235.345124 80.04024 
L 237.48341 80.04024 
L 237.600398 79.455311 
L 240.343123 79.455311 
L 240.460111 78.870382 
L 240.908566 78.870382 
L 241.025554 78.285453 
L 241.902966 78.285453 
L 242.019954 77.700524 
L 242.16294 77.700524 
L 242.279928 77.115595 
L 242.845371 77.115595 
L 242.96236 76.530666 
L 243.547301 76.530666 
L 243.664289 75.945737 
L 244.086747 75.945737 
L 244.203735 75.360807 
L 247.427411 75.360807 
L 247.5444 74.775878 
L 249.052248 74.775878 
L 249.169237 74.190949 
L 249.988154 74.190949 
L 250.111642 73.021091 
L 250.287124 73.021091 
L 250.404113 72.436162 
L 252.509901 72.436162 
L 252.626889 71.851233 
L 252.81537 71.851233 
L 252.938858 70.681375 
L 253.166335 70.681375 
L 253.283323 70.096446 
L 254.667685 70.096446 
L 254.784673 69.511517 
L 257.423408 69.511517 
L 257.540396 68.926588 
L 260.231126 68.926588 
L 260.348114 68.341658 
L 263.129835 68.341658 
L 263.246823 67.756729 
L 263.896758 67.756729 
L 264.013746 66.586871 
L 265.989548 66.586871 
L 266.106536 66.001942 
L 266.340513 66.001942 
L 266.457501 65.417013 
L 266.814965 65.417013 
L 266.931953 64.832084 
L 267.56239 64.832084 
L 267.679378 64.247155 
L 269.564189 64.247155 
L 269.687677 63.077297 
L 269.811164 63.077297 
L 269.928152 62.492368 
L 269.94765 62.492368 
L 270.064639 61.907439 
L 270.136132 61.907439 
L 270.25312 61.322509 
L 270.324613 61.322509 
L 270.441601 60.73758 
L 272.521392 60.73758 
L 272.63838 60.152651 
L 273.470297 60.152651 
L 273.587285 59.567722 
L 273.697774 59.567722 
L 273.814762 58.982793 
L 274.009743 58.982793 
L 274.126731 58.397864 
L 274.503693 58.397864 
L 274.620681 57.812935 
L 276.72647 57.812935 
L 276.849957 56.643077 
L 277.350407 56.643077 
L 277.467395 56.058148 
L 278.832258 56.058148 
L 278.949247 55.473219 
L 280.951046 55.473219 
L 281.068034 54.88829 
L 281.977943 54.88829 
L 282.094931 54.30336 
L 282.70587 54.30336 
L 282.822858 53.718431 
L 283.206319 53.718431 
L 283.329807 52.548573 
L 284.226717 52.548573 
L 284.343705 51.963644 
L 284.421697 51.963644 
L 284.551684 50.208857 
L 284.974142 50.208857 
L 285.09113 49.623928 
L 285.650074 49.623928 
L 285.767062 49.038999 
L 286.670472 49.038999 
L 286.78746 48.45407 
L 287.814357 48.45407 
L 287.931345 47.869141 
L 287.996338 47.869141 
L 288.113327 47.284211 
L 288.152323 47.284211 
L 288.27581 46.114353 
L 288.67877 46.114353 
L 288.795758 45.529424 
L 290.219115 45.529424 
L 290.336103 44.944495 
L 291.66847 44.944495 
L 291.785458 44.359566 
L 292.123424 44.359566 
L 292.240412 43.774637 
L 292.740862 43.774637 
L 292.85785 43.189708 
L 295.717563 43.189708 
L 295.834551 42.604779 
L 296.114023 42.604779 
L 296.231012 42.01985 
L 296.776957 42.01985 
L 296.893945 41.434921 
L 297.654369 41.434921 
L 297.771357 40.849991 
L 297.823352 40.849991 
L 297.94034 40.265062 
L 299.097224 40.265062 
L 299.214212 39.680133 
L 300.670066 39.680133 
L 300.787054 39.095204 
L 301.482484 39.095204 
L 301.599473 38.510275 
L 302.710861 38.510275 
L 302.827849 37.925346 
L 303.880744 37.925346 
L 303.997732 37.340417 
L 304.082223 37.340417 
L 304.199212 36.755488 
L 305.382093 36.755488 
L 305.499081 36.170559 
L 306.662464 36.170559 
L 306.779453 35.58563 
L 307.169413 35.58563 
L 307.286402 35.000701 
L 307.2994 35.000701 
L 307.416389 34.415772 
L 308.846245 34.415772 
L 308.963233 33.830842 
L 309.034726 33.830842 
L 309.151714 33.245913 
L 309.320697 33.245913 
L 309.437686 32.660984 
L 309.808149 32.660984 
L 309.925137 32.076055 
L 310.939035 32.076055 
L 311.056023 31.491126 
L 312.38839 31.491126 
L 312.505378 30.906197 
L 312.901838 30.906197 
L 313.018826 30.321268 
L 315.287098 30.321268 
L 315.404087 29.736339 
L 316.197007 29.736339 
L 316.313995 29.15141 
L 316.502476 29.15141 
L 316.619465 28.566481 
L 319.336192 28.566481 
L 319.45318 27.981552 
L 319.55717 27.981552 
L 319.674158 27.396623 
L 319.778148 27.396623 
L 319.895136 26.811693 
L 320.005625 26.811693 
L 320.122613 26.226764 
L 320.15511 26.226764 
L 320.278597 25.056906 
L 321.169008 25.056906 
L 321.285996 24.471977 
L 322.702854 24.471977 
L 322.819842 23.887048 
L 323.456778 23.887048 
L 323.573767 23.302119 
L 324.600663 23.302119 
L 324.717652 22.71719 
L 325.504073 22.71719 
L 325.621061 22.132261 
L 327.232899 22.132261 
L 327.349887 21.547332 
L 328.032319 21.547332 
L 328.149307 20.962403 
L 328.2208 20.962403 
L 328.337788 20.377474 
L 329.345187 20.377474 
L 329.462175 19.792544 
L 329.572664 19.792544 
L 329.689653 19.207615 
L 330.359085 19.207615 
L 330.476074 18.622686 
L 330.502071 18.622686 
L 330.619059 18.037757 
L 331.470474 18.037757 
L 331.587462 17.452828 
L 332.815839 17.452828 
L 332.932827 16.867899 
L 334.785141 16.867899 
L 334.902129 16.28297 
L 336.039515 16.28297 
L 336.039515 16.28297 
" clip-path="url(#p4b0ddff8de)" style="fill: none; stroke: #1f77b4; stroke-width: 1.4; stroke-linecap: square"/>
   </g>
   <g id="line2d_22">
    <path d="M 55.274203 185.327475 
L 62.702957 185.327475 
L 62.819946 184.742546 
L 67.440982 184.742546 
L 67.55797 184.157617 
L 67.921933 184.157617 
L 68.038922 183.572688 
L 70.580166 183.572688 
L 70.697155 182.987759 
L 72.224501 182.987759 
L 72.34149 182.40283 
L 73.173406 182.40283 
L 73.290394 181.817901 
L 73.563367 181.817901 
L 73.680355 181.232972 
L 74.265296 181.232972 
L 74.382285 180.648043 
L 82.116508 180.648043 
L 82.233496 180.063114 
L 85.002218 180.063114 
L 85.119207 179.478185 
L 86.588059 179.478185 
L 86.705048 178.893255 
L 87.965921 178.893255 
L 88.082909 178.308326 
L 91.96302 178.308326 
L 92.080008 177.723397 
L 94.770738 177.723397 
L 94.887726 177.138468 
L 99.235789 177.138468 
L 99.352778 176.553539 
L 103.031408 176.553539 
L 103.148397 175.96861 
L 110.609648 175.96861 
L 110.733135 174.798752 
L 113.332874 174.798752 
L 113.449862 174.213823 
L 118.961309 174.213823 
L 119.078297 173.628894 
L 126.676035 173.628894 
L 126.793023 173.043965 
L 129.438257 173.043965 
L 129.555245 172.459036 
L 130.055695 172.459036 
L 130.172683 171.874106 
L 141.358061 171.874106 
L 141.475049 171.289177 
L 149.63173 171.289177 
L 149.748718 170.704248 
L 149.781215 170.704248 
L 149.898203 170.119319 
L 172.899394 170.119319 
L 173.016382 169.53439 
L 179.041277 169.53439 
L 179.158265 168.949461 
L 181.491531 168.949461 
L 181.608519 168.364532 
L 181.771003 168.364532 
L 181.887991 167.779603 
L 205.857585 167.779603 
L 205.974573 167.194674 
L 211.914977 167.194674 
L 212.031965 166.609745 
L 230.464114 166.609745 
L 230.581103 166.024816 
L 231.20504 166.024816 
L 231.322028 165.439887 
L 231.367524 165.439887 
L 231.484512 164.854957 
L 232.134447 164.854957 
L 232.251435 164.270028 
L 234.155744 164.270028 
L 234.272732 163.685099 
L 243.417314 163.685099 
L 243.534302 163.10017 
L 246.277027 163.10017 
L 246.394015 162.515241 
L 261.180031 162.515241 
L 261.297019 161.930312 
L 294.55418 161.930312 
L 294.671168 161.345383 
L 295.197615 161.345383 
L 295.314604 160.760454 
L 296.601474 160.760454 
L 296.718463 160.175525 
L 296.874447 160.175525 
L 296.991435 159.590596 
L 299.864147 159.590596 
L 299.981135 159.005667 
L 302.060926 159.005667 
L 302.177915 158.420738 
L 305.382093 158.420738 
L 305.499081 157.835808 
L 307.169413 157.835808 
L 307.286402 157.250879 
L 317.06142 157.250879 
L 317.178409 156.66595 
L 324.444679 156.66595 
L 324.568167 155.496092 
L 327.395383 155.496092 
L 327.512371 154.911163 
L 331.847436 154.911163 
L 331.964424 154.326234 
L 336.039515 154.326234 
L 336.039515 154.326234 
" clip-path="url(#p4b0ddff8de)" style="fill: none; stroke: #ff7f0e; stroke-width: 1.4; stroke-linecap: square"/>
   </g>
   <g id="line2d_23">
    <path d="M 55.274203 185.327475 
L 64.288798 185.327475 
L 64.405786 184.742546 
L 77.930928 184.742546 
L 78.047917 184.157617 
L 81.349585 184.157617 
L 81.466573 183.572688 
L 85.704148 183.572688 
L 85.821136 182.987759 
L 87.738444 182.987759 
L 87.855432 182.40283 
L 88.316886 182.40283 
L 88.433874 181.817901 
L 95.778137 181.817901 
L 95.895125 181.232972 
L 98.494864 181.232972 
L 98.611852 180.648043 
L 99.541259 180.648043 
L 99.658247 180.063114 
L 117.485957 180.063114 
L 117.602945 179.478185 
L 125.233179 179.478185 
L 125.350168 178.893255 
L 128.177384 178.893255 
L 128.294372 178.308326 
L 129.048296 178.308326 
L 129.165285 177.723397 
L 133.864313 177.723397 
L 133.981301 177.138468 
L 146.960498 177.138468 
L 147.077486 176.553539 
L 158.717818 176.553539 
L 158.834806 175.96861 
L 161.350053 175.96861 
L 161.473541 174.798752 
L 180.71161 174.798752 
L 180.828598 174.213823 
L 182.433937 174.213823 
L 182.550925 173.628894 
L 184.052274 173.628894 
L 184.169262 173.043965 
L 191.55902 173.043965 
L 191.676009 172.459036 
L 192.267449 172.459036 
L 192.384438 171.874106 
L 201.444528 171.874106 
L 201.561516 171.289177 
L 206.247546 171.289177 
L 206.364534 170.704248 
L 207.592911 170.704248 
L 207.709899 170.119319 
L 225.511612 170.119319 
L 225.6286 169.53439 
L 226.343528 169.53439 
L 226.460516 168.949461 
L 231.523508 168.949461 
L 231.640496 168.364532 
L 237.301428 168.364532 
L 237.418416 167.779603 
L 241.116545 167.779603 
L 241.233533 167.194674 
L 243.579798 167.194674 
L 243.696786 166.609745 
L 258.775272 166.609745 
L 258.89226 166.024816 
L 261.771471 166.024816 
L 261.88846 165.439887 
L 272.254919 165.439887 
L 272.371907 164.854957 
L 284.363203 164.854957 
L 284.486691 163.685099 
L 288.711267 163.685099 
L 288.828255 163.10017 
L 298.356298 163.10017 
L 298.473287 162.515241 
L 303.393293 162.515241 
L 303.510281 161.930312 
L 309.255704 161.930312 
L 309.372692 161.345383 
L 317.113415 161.345383 
L 317.230403 160.760454 
L 320.701055 160.760454 
L 320.818043 160.175525 
L 321.675957 160.175525 
L 321.792945 159.590596 
L 325.939529 159.590596 
L 326.056517 159.005667 
L 331.483472 159.005667 
L 331.600461 158.420738 
L 336.039515 158.420738 
L 336.039515 158.420738 
" clip-path="url(#p4b0ddff8de)" style="fill: none; stroke: #2ca02c; stroke-width: 1.4; stroke-linecap: square"/>
   </g>
   <g id="patch_3">
    <path d="M 41.235938 193.779701 
L 41.235938 7.830745 
" style="fill: none; stroke: #000000; stroke-width: 0.8; stroke-linejoin: miter; stroke-linecap: square"/>
   </g>
   <g id="patch_4">
    <path d="M 350.077781 193.779701 
L 350.077781 7.830745 
" style="fill: none; stroke: #000000; stroke-width: 0.8; stroke-linejoin: miter; stroke-linecap: square"/>
   </g>
   <g id="patch_5">
    <path d="M 41.235938 193.779701 
L 350.077781 193.779701 
" style="fill: none; stroke: #000000; stroke-width: 0.8; stroke-linejoin: miter; stroke-linecap: square"/>
   </g>
   <g id="patch_6">
    <path d="M 41.235938 7.830745 
L 350.077781 7.830745 
" style="fill: none; stroke: #000000; stroke-width: 0.8; stroke-linejoin: miter; stroke-linecap: square"/>
   </g>
   <g id="legend_1">
    <g id="patch_7">
     <path d="M 46.835938 48.164495 
L 112.435938 48.164495 
Q 114.035938 48.164495 114.035938 46.564495 
L 114.035938 13.430745 
Q 114.035938 11.830745 112.435938 11.830745 
L 46.835938 11.830745 
Q 45.235938 11.830745 45.235938 13.430745 
L 45.235938 46.564495 
Q 45.235938 48.164495 46.835938 48.164495 
z
" style="fill: #ffffff; opacity: 0.8; stroke: #cccccc; stroke-width: 0.24; stroke-linejoin: miter"/>
    </g>
    <g id="line2d_24">
     <path d="M 48.435938 17.830745 
L 56.435938 17.830745 
L 64.435938 17.830745 
" style="fill: none; stroke: #1f77b4; stroke-width: 1.4; stroke-linecap: square"/>
    </g>
    <g id="text_13">
     <!--                      -->
     <g transform="translate(70.835938 20.630745)scale(0.08 -0.08)">
      <use xlink:href="#TimesNewRomanPS-BoldMT-20"/>
      <use xlink:href="#TimesNewRomanPS-BoldMT-20" x="25"/>
      <use xlink:href="#TimesNewRomanPS-BoldMT-20" x="50"/>
      <use xlink:href="#TimesNewRomanPS-BoldMT-20" x="75"/>
      <use xlink:href="#TimesNewRomanPS-BoldMT-20" x="100"/>
      <use xlink:href="#TimesNewRomanPS-BoldMT-20" x="125"/>
      <use xlink:href="#TimesNewRomanPS-BoldMT-20" x="150"/>
      <use xlink:href="#TimesNewRomanPS-BoldMT-20" x="175"/>
      <use xlink:href="#TimesNewRomanPS-BoldMT-20" x="200"/>
      <use xlink:href="#TimesNewRomanPS-BoldMT-20" x="225"/>
      <use xlink:href="#TimesNewRomanPS-BoldMT-20" x="250"/>
      <use xlink:href="#TimesNewRomanPS-BoldMT-20" x="275"/>
      <use xlink:href="#TimesNewRomanPS-BoldMT-20" x="300"/>
      <use xlink:href="#TimesNewRomanPS-BoldMT-20" x="325"/>
      <use xlink:href="#TimesNewRomanPS-BoldMT-20" x="350"/>
      <use xlink:href="#TimesNewRomanPS-BoldMT-20" x="375"/>
      <use xlink:href="#TimesNewRomanPS-BoldMT-20" x="400"/>
      <use xlink:href="#TimesNewRomanPS-BoldMT-20" x="425"/>
      <use xlink:href="#TimesNewRomanPS-BoldMT-20" x="450"/>
      <use xlink:href="#TimesNewRomanPS-BoldMT-20" x="475"/>
     </g>
    </g>
    <g id="line2d_25">
     <path d="M 48.435938 29.141995 
L 56.435938 29.141995 
L 64.435938 29.141995 
" style="fill: none; stroke: #ff7f0e; stroke-width: 1.4; stroke-linecap: square"/>
    </g>
    <g id="text_14">
     <!--                      -->
     <g transform="translate(70.835938 31.941995)scale(0.08 -0.08)">
      <use xlink:href="#TimesNewRomanPS-BoldMT-20"/>
      <use xlink:href="#TimesNewRomanPS-BoldMT-20" x="25"/>
      <use xlink:href="#TimesNewRomanPS-BoldMT-20" x="50"/>
      <use xlink:href="#TimesNewRomanPS-BoldMT-20" x="75"/>
      <use xlink:href="#TimesNewRomanPS-BoldMT-20" x="100"/>
      <use xlink:href="#TimesNewRomanPS-BoldMT-20" x="125"/>
      <use xlink:href="#TimesNewRomanPS-BoldMT-20" x="150"/>
      <use xlink:href="#TimesNewRomanPS-BoldMT-20" x="175"/>
      <use xlink:href="#TimesNewRomanPS-BoldMT-20" x="200"/>
      <use xlink:href="#TimesNewRomanPS-BoldMT-20" x="225"/>
      <use xlink:href="#TimesNewRomanPS-BoldMT-20" x="250"/>
      <use xlink:href="#TimesNewRomanPS-BoldMT-20" x="275"/>
      <use xlink:href="#TimesNewRomanPS-BoldMT-20" x="300"/>
      <use xlink:href="#TimesNewRomanPS-BoldMT-20" x="325"/>
      <use xlink:href="#TimesNewRomanPS-BoldMT-20" x="350"/>
      <use xlink:href="#TimesNewRomanPS-BoldMT-20" x="375"/>
      <use xlink:href="#TimesNewRomanPS-BoldMT-20" x="400"/>
      <use xlink:href="#TimesNewRomanPS-BoldMT-20" x="425"/>
      <use xlink:href="#TimesNewRomanPS-BoldMT-20" x="450"/>
      <use xlink:href="#TimesNewRomanPS-BoldMT-20" x="475"/>
     </g>
    </g>
    <g id="line2d_26">
     <path d="M 48.435938 40.453245 
L 56.435938 40.453245 
L 64.435938 40.453245 
" style="fill: none; stroke: #2ca02c; stroke-width: 1.4; stroke-linecap: square"/>
    </g>
    <g id="text_15">
     <!--                      -->
     <g transform="translate(70.835938 43.253245)scale(0.08 -0.08)">
      <use xlink:href="#TimesNewRomanPS-BoldMT-20"/>
      <use xlink:href="#TimesNewRomanPS-BoldMT-20" x="25"/>
      <use xlink:href="#TimesNewRomanPS-BoldMT-20" x="50"/>
      <use xlink:href="#TimesNewRomanPS-BoldMT-20" x="75"/>
      <use xlink:href="#TimesNewRomanPS-BoldMT-20" x="100"/>
      <use xlink:href="#TimesNewRomanPS-BoldMT-20" x="125"/>
      <use xlink:href="#TimesNewRomanPS-BoldMT-20" x="150"/>
      <use xlink:href="#TimesNewRomanPS-BoldMT-20" x="175"/>
      <use xlink:href="#TimesNewRomanPS-BoldMT-20" x="200"/>
      <use xlink:href="#TimesNewRomanPS-BoldMT-20" x="225"/>
      <use xlink:href="#TimesNewRomanPS-BoldMT-20" x="250"/>
      <use xlink:href="#TimesNewRomanPS-BoldMT-20" x="275"/>
      <use xlink:href="#TimesNewRomanPS-BoldMT-20" x="300"/>
      <use xlink:href="#TimesNewRomanPS-BoldMT-20" x="325"/>
      <use xlink:href="#TimesNewRomanPS-BoldMT-20" x="350"/>
      <use xlink:href="#TimesNewRomanPS-BoldMT-20" x="375"/>
      <use xlink:href="#TimesNewRomanPS-BoldMT-20" x="400"/>
      <use xlink:href="#TimesNewRomanPS-BoldMT-20" x="425"/>
      <use xlink:href="#TimesNewRomanPS-BoldMT-20" x="450"/>
      <use xlink:href="#TimesNewRomanPS-BoldMT-20" x="475"/>
     </g>
    </g>
   </g>
  </g>
 </g>
 <defs>
  <clipPath id="p4b0ddff8de">
   <rect x="41.235938" y="7.830745" width="308.841843" height="185.948956"/>
  </clipPath>
 </defs>
</svg>
