<?xml version="1.0" encoding="utf-8" standalone="no"?>
<!DOCTYPE svg PUBLIC "-//W3C//DTD SVG 1.1//EN"
  "http://www.w3.org/Graphics/SVG/1.1/DTD/svg11.dtd">
<svg xmlns:xlink="http://www.w3.org/1999/xlink" width="353.277781pt" height="233.069244pt" viewBox="0 0 353.277781 233.069244" xmlns="http://www.w3.org/2000/svg" version="1.1">
 <metadata>
  <rdf:RDF xmlns:dc="http://purl.org/dc/elements/1.1/" xmlns:cc="http://creativecommons.org/ns#" xmlns:rdf="http://www.w3.org/1999/02/22-rdf-syntax-ns#">
   <cc:Work>
    <dc:type rdf:resource="http://purl.org/dc/dcmitype/StillImage"/>
    <dc:date>2022-12-17T14:48:55.961914</dc:date>
    <dc:format>image/svg+xml</dc:format>
    <dc:creator>
     <cc:Agent>
      <dc:title>Matplotlib v3.6.2, https://matplotlib.org/</dc:title>
     </cc:Agent>
    </dc:creator>
   </cc:Work>
  </rdf:RDF>
 </metadata>
 <defs>
  <style type="text/css">*{stroke-linejoin: round; stroke-linecap: butt}</style>
 </defs>
 <g id="figure_1">
  <g id="patch_1">
   <path d="M -0 233.069244 
L 353.277781 233.069244 
L 353.277781 0 
L -0 0 
z
" style="fill: #ffffff"/>
  </g>
  <g id="axes_1">
   <g id="patch_2">
    <path d="M 37.235938 196.843306 
L 346.077781 196.843306 
L 346.077781 7.2 
L 37.235938 7.2 
z
" style="fill: #ffffff"/>
   </g>
   <g id="matplotlib.axis_1">
    <g id="xtick_1">
     <g id="line2d_1">
      <path d="M 51.274203 196.843306 
L 51.274203 7.2 
" clip-path="url(#p1e384eefa9)" style="fill: none; stroke-dasharray: 1.85,0.8; stroke-dashoffset: 0; stroke: #b0b0b0; stroke-width: 0.5"/>
     </g>
     <g id="line2d_2">
      <defs>
       <path id="m68af98a363" d="M 0 0 
L 0 3.5 
" style="stroke: #000000; stroke-width: 0.8"/>
      </defs>
      <g>
       <use xlink:href="#m68af98a363" x="51.274203" y="196.843306" style="stroke: #000000; stroke-width: 0.8"/>
      </g>
     </g>
     <g id="text_1">
      <!-- 0 -->
      <g transform="translate(49.274203 211.240806) scale(0.08 -0.08)">
       <defs>
        <path id="TimesNewRomanPS-BoldMT-30" d="M 2966 2119 
Q 2966 1484 2788 934 
Q 2681 597 2501 381 
Q 2322 166 2094 39 
Q 1866 -88 1597 -88 
Q 1291 -88 1044 68 
Q 797 225 606 516 
Q 469 728 366 1081 
Q 231 1559 231 2069 
Q 231 2759 425 3338 
Q 584 3816 909 4070 
Q 1234 4325 1597 4325 
Q 1966 4325 2286 4073 
Q 2606 3822 2756 3397 
Q 2966 2813 2966 2119 
z
M 2003 2125 
Q 2003 3238 1991 3422 
Q 1959 3856 1841 4009 
Q 1763 4109 1588 4109 
Q 1453 4109 1375 4034 
Q 1259 3925 1218 3648 
Q 1178 3372 1178 1719 
Q 1178 819 1241 513 
Q 1288 291 1375 216 
Q 1463 141 1606 141 
Q 1763 141 1841 241 
Q 1972 416 1991 781 
L 2003 2125 
z
" transform="scale(0.015625)"/>
       </defs>
       <use xlink:href="#TimesNewRomanPS-BoldMT-30"/>
      </g>
     </g>
    </g>
    <g id="xtick_2">
     <g id="line2d_3">
      <path d="M 163.580328 196.843306 
L 163.580328 7.2 
" clip-path="url(#p1e384eefa9)" style="fill: none; stroke-dasharray: 1.85,0.8; stroke-dashoffset: 0; stroke: #b0b0b0; stroke-width: 0.5"/>
     </g>
     <g id="line2d_4">
      <g>
       <use xlink:href="#m68af98a363" x="163.580328" y="196.843306" style="stroke: #000000; stroke-width: 0.8"/>
      </g>
     </g>
     <g id="text_2">
      <!-- 5 -->
      <g transform="translate(161.580328 211.240806) scale(0.08 -0.08)">
       <defs>
        <path id="TimesNewRomanPS-BoldMT-35" d="M 975 4238 
L 2959 4238 
L 2644 3431 
L 975 3431 
L 816 3009 
Q 1894 2969 2475 2472 
Q 2953 2063 2953 1453 
Q 2953 1063 2731 689 
Q 2509 316 2106 114 
Q 1703 -88 1222 -88 
Q 703 -88 425 106 
Q 231 244 231 419 
Q 231 553 332 656 
Q 434 759 569 759 
Q 691 759 816 709 
Q 941 659 1244 447 
Q 1434 316 1572 266 
Q 1669 228 1791 228 
Q 2047 228 2226 415 
Q 2406 603 2406 866 
Q 2406 1416 1856 1759 
Q 1306 2103 469 2103 
Q 384 2103 216 2100 
L 975 4238 
z
" transform="scale(0.015625)"/>
       </defs>
       <use xlink:href="#TimesNewRomanPS-BoldMT-35"/>
      </g>
     </g>
    </g>
    <g id="xtick_3">
     <g id="line2d_5">
      <path d="M 275.886453 196.843306 
L 275.886453 7.2 
" clip-path="url(#p1e384eefa9)" style="fill: none; stroke-dasharray: 1.85,0.8; stroke-dashoffset: 0; stroke: #b0b0b0; stroke-width: 0.5"/>
     </g>
     <g id="line2d_6">
      <g>
       <use xlink:href="#m68af98a363" x="275.886453" y="196.843306" style="stroke: #000000; stroke-width: 0.8"/>
      </g>
     </g>
     <g id="text_3">
      <!-- 10 -->
      <g transform="translate(271.886453 211.240806) scale(0.08 -0.08)">
       <defs>
        <path id="TimesNewRomanPS-BoldMT-31" d="M 2084 4325 
L 2084 859 
Q 2084 469 2118 361 
Q 2153 253 2262 184 
Q 2372 116 2613 116 
L 2709 116 
L 2709 0 
L 478 0 
L 478 116 
L 591 116 
Q 863 116 978 178 
Q 1094 241 1134 350 
Q 1175 459 1175 859 
L 1175 3056 
Q 1175 3350 1147 3423 
Q 1119 3497 1042 3548 
Q 966 3600 866 3600 
Q 706 3600 478 3500 
L 422 3613 
L 1981 4325 
L 2084 4325 
z
" transform="scale(0.015625)"/>
       </defs>
       <use xlink:href="#TimesNewRomanPS-BoldMT-31"/>
       <use xlink:href="#TimesNewRomanPS-BoldMT-30" x="50"/>
      </g>
     </g>
    </g>
    <g id="text_4">
     <!-- Experiment Time (12 Hours In Total) -->
     <g transform="translate(111.963109 223.730181) scale(0.1 -0.1)">
      <defs>
       <path id="TimesNewRomanPS-BoldMT-45" d="M 1744 3994 
L 1744 2269 
L 1828 2269 
Q 2231 2269 2412 2522 
Q 2594 2775 2644 3269 
L 2763 3269 
L 2763 1050 
L 2644 1050 
Q 2606 1413 2486 1644 
Q 2366 1875 2206 1954 
Q 2047 2034 1744 2034 
L 1744 841 
Q 1744 491 1773 412 
Q 1803 334 1884 284 
Q 1966 234 2147 234 
L 2400 234 
Q 2994 234 3351 509 
Q 3709 784 3866 1347 
L 3981 1347 
L 3791 0 
L 128 0 
L 128 116 
L 269 116 
Q 453 116 566 181 
Q 647 225 691 331 
Q 725 406 725 725 
L 725 3513 
Q 725 3800 709 3866 
Q 678 3975 594 4034 
Q 475 4122 269 4122 
L 128 4122 
L 128 4238 
L 3675 4238 
L 3675 2984 
L 3556 2984 
Q 3466 3444 3302 3644 
Q 3138 3844 2838 3938 
Q 2663 3994 2181 3994 
L 1744 3994 
z
" transform="scale(0.015625)"/>
       <path id="TimesNewRomanPS-BoldMT-78" d="M 1944 1791 
L 2450 828 
Q 2713 325 2866 191 
Q 2950 119 3097 113 
L 3097 0 
L 1469 0 
L 1469 113 
Q 1659 128 1704 162 
Q 1750 197 1750 256 
Q 1750 344 1650 531 
L 1397 1006 
L 1181 691 
Q 1034 475 1016 434 
Q 991 375 991 328 
Q 991 256 1020 207 
Q 1050 159 1101 136 
Q 1153 113 1291 113 
L 1291 0 
L 147 0 
L 147 113 
Q 359 113 536 230 
Q 713 347 1050 844 
L 1291 1200 
L 788 2131 
Q 541 2588 419 2691 
Q 297 2794 147 2806 
L 147 2922 
L 1766 2922 
L 1766 2806 
L 1681 2803 
L 1519 2747 
Q 1494 2725 1494 2675 
Q 1494 2628 1509 2578 
Q 1519 2556 1597 2409 
L 1825 1984 
L 1944 2153 
Q 2194 2497 2194 2634 
Q 2194 2700 2139 2745 
Q 2084 2791 1944 2806 
L 1944 2922 
L 2978 2922 
L 2978 2806 
Q 2788 2800 2622 2689 
Q 2456 2578 2250 2259 
L 1944 1791 
z
" transform="scale(0.015625)"/>
       <path id="TimesNewRomanPS-BoldMT-70" d="M 1347 297 
L 1347 -791 
Q 1347 -1016 1383 -1097 
Q 1419 -1178 1494 -1215 
Q 1569 -1253 1788 -1253 
L 1788 -1369 
L 122 -1369 
L 122 -1253 
Q 316 -1247 409 -1144 
Q 472 -1072 472 -772 
L 472 2313 
Q 472 2622 400 2708 
Q 328 2794 122 2806 
L 122 2922 
L 1347 2922 
L 1347 2538 
Q 1500 2763 1659 2863 
Q 1888 3009 2156 3009 
Q 2478 3009 2742 2806 
Q 3006 2603 3143 2245 
Q 3281 1888 3281 1475 
Q 3281 1031 3139 664 
Q 2997 297 2726 104 
Q 2456 -88 2125 -88 
Q 1884 -88 1675 19 
Q 1519 100 1347 297 
z
M 1347 613 
Q 1616 231 1922 231 
Q 2091 231 2200 409 
Q 2363 672 2363 1409 
Q 2363 2166 2184 2444 
Q 2066 2628 1866 2628 
Q 1550 2628 1347 2172 
L 1347 613 
z
" transform="scale(0.015625)"/>
       <path id="TimesNewRomanPS-BoldMT-65" d="M 2691 1566 
L 1088 1566 
Q 1116 984 1397 647 
Q 1613 388 1916 388 
Q 2103 388 2256 492 
Q 2409 597 2584 869 
L 2691 800 
Q 2453 316 2165 114 
Q 1878 -88 1500 -88 
Q 850 -88 516 413 
Q 247 816 247 1413 
Q 247 2144 642 2576 
Q 1038 3009 1569 3009 
Q 2013 3009 2339 2645 
Q 2666 2281 2691 1566 
z
M 1922 1775 
Q 1922 2278 1867 2465 
Q 1813 2653 1697 2750 
Q 1631 2806 1522 2806 
Q 1359 2806 1256 2647 
Q 1072 2369 1072 1884 
L 1072 1775 
L 1922 1775 
z
" transform="scale(0.015625)"/>
       <path id="TimesNewRomanPS-BoldMT-72" d="M 1428 2922 
L 1428 2259 
Q 1719 2713 1937 2861 
Q 2156 3009 2359 3009 
Q 2534 3009 2639 2901 
Q 2744 2794 2744 2597 
Q 2744 2388 2642 2272 
Q 2541 2156 2397 2156 
Q 2231 2156 2109 2262 
Q 1988 2369 1966 2381 
Q 1934 2400 1894 2400 
Q 1803 2400 1722 2331 
Q 1594 2225 1528 2028 
Q 1428 1725 1428 1359 
L 1428 688 
L 1431 513 
Q 1431 334 1453 284 
Q 1491 200 1564 161 
Q 1638 122 1813 113 
L 1813 0 
L 234 0 
L 234 113 
Q 425 128 492 217 
Q 559 306 559 688 
L 559 2303 
Q 559 2553 534 2622 
Q 503 2709 443 2750 
Q 384 2791 234 2806 
L 234 2922 
L 1428 2922 
z
" transform="scale(0.015625)"/>
       <path id="TimesNewRomanPS-BoldMT-69" d="M 919 4338 
Q 1122 4338 1262 4195 
Q 1403 4053 1403 3853 
Q 1403 3653 1261 3512 
Q 1119 3372 919 3372 
Q 719 3372 578 3512 
Q 438 3653 438 3853 
Q 438 4053 578 4195 
Q 719 4338 919 4338 
z
M 1356 2922 
L 1356 606 
Q 1356 297 1428 211 
Q 1500 125 1709 113 
L 1709 0 
L 131 0 
L 131 113 
Q 325 119 419 225 
Q 481 297 481 606 
L 481 2313 
Q 481 2622 409 2708 
Q 338 2794 131 2806 
L 131 2922 
L 1356 2922 
z
" transform="scale(0.015625)"/>
       <path id="TimesNewRomanPS-BoldMT-6d" d="M 1428 2922 
L 1428 2538 
Q 1669 2800 1873 2904 
Q 2078 3009 2322 3009 
Q 2603 3009 2793 2878 
Q 2984 2747 3088 2478 
Q 3338 2759 3567 2884 
Q 3797 3009 4047 3009 
Q 4350 3009 4529 2870 
Q 4709 2731 4779 2517 
Q 4850 2303 4850 1834 
L 4850 638 
Q 4850 300 4911 219 
Q 4972 138 5166 113 
L 5166 0 
L 3656 0 
L 3656 113 
Q 3834 128 3919 250 
Q 3975 334 3975 638 
L 3975 1894 
Q 3975 2284 3944 2390 
Q 3913 2497 3845 2548 
Q 3778 2600 3688 2600 
Q 3553 2600 3415 2501 
Q 3278 2403 3138 2206 
L 3138 638 
Q 3138 322 3191 241 
Q 3263 125 3466 113 
L 3466 0 
L 1953 0 
L 1953 113 
Q 2075 119 2145 173 
Q 2216 228 2239 304 
Q 2263 381 2263 638 
L 2263 1894 
Q 2263 2291 2231 2391 
Q 2200 2491 2126 2547 
Q 2053 2603 1969 2603 
Q 1844 2603 1741 2538 
Q 1594 2441 1428 2206 
L 1428 638 
Q 1428 328 1489 229 
Q 1550 131 1744 113 
L 1744 0 
L 238 0 
L 238 113 
Q 422 131 500 231 
Q 553 300 553 638 
L 553 2288 
Q 553 2619 492 2700 
Q 431 2781 238 2806 
L 238 2922 
L 1428 2922 
z
" transform="scale(0.015625)"/>
       <path id="TimesNewRomanPS-BoldMT-6e" d="M 1409 2922 
L 1409 2544 
Q 1634 2788 1840 2898 
Q 2047 3009 2284 3009 
Q 2569 3009 2756 2851 
Q 2944 2694 3006 2459 
Q 3056 2281 3056 1775 
L 3056 638 
Q 3056 300 3117 217 
Q 3178 134 3372 113 
L 3372 0 
L 1894 0 
L 1894 113 
Q 2059 134 2131 250 
Q 2181 328 2181 638 
L 2181 1938 
Q 2181 2297 2153 2390 
Q 2125 2484 2058 2536 
Q 1991 2588 1909 2588 
Q 1641 2588 1409 2203 
L 1409 638 
Q 1409 309 1470 221 
Q 1531 134 1697 113 
L 1697 0 
L 219 0 
L 219 113 
Q 403 131 481 231 
Q 534 300 534 638 
L 534 2288 
Q 534 2619 473 2700 
Q 413 2781 219 2806 
L 219 2922 
L 1409 2922 
z
" transform="scale(0.015625)"/>
       <path id="TimesNewRomanPS-BoldMT-74" d="M 1375 3991 
L 1375 2922 
L 2069 2922 
L 2069 2613 
L 1375 2613 
L 1375 809 
Q 1375 556 1398 482 
Q 1422 409 1481 364 
Q 1541 319 1591 319 
Q 1794 319 1975 628 
L 2069 559 
Q 1816 -41 1247 -41 
Q 969 -41 776 114 
Q 584 269 531 459 
Q 500 566 500 1034 
L 500 2613 
L 119 2613 
L 119 2722 
Q 513 3000 789 3306 
Q 1066 3613 1272 3991 
L 1375 3991 
z
" transform="scale(0.015625)"/>
       <path id="TimesNewRomanPS-BoldMT-20" transform="scale(0.015625)"/>
       <path id="TimesNewRomanPS-BoldMT-54" d="M 4038 4238 
L 4038 3091 
L 3925 3091 
Q 3825 3488 3703 3661 
Q 3581 3834 3369 3938 
Q 3250 3994 2953 3994 
L 2638 3994 
L 2638 725 
Q 2638 400 2673 319 
Q 2709 238 2814 177 
Q 2919 116 3100 116 
L 3241 116 
L 3241 0 
L 1022 0 
L 1022 116 
L 1163 116 
Q 1347 116 1459 181 
Q 1541 225 1588 331 
Q 1622 406 1622 725 
L 1622 3994 
L 1316 3994 
Q 888 3994 694 3813 
Q 422 3559 350 3091 
L 231 3091 
L 231 4238 
L 4038 4238 
z
" transform="scale(0.015625)"/>
       <path id="TimesNewRomanPS-BoldMT-28" d="M 2056 4334 
L 2056 4191 
Q 1731 3978 1578 3775 
Q 1366 3494 1247 3053 
Q 1097 2506 1097 1525 
Q 1097 600 1233 87 
Q 1369 -425 1603 -741 
Q 1766 -959 2056 -1125 
L 2056 -1281 
Q 1303 -1028 779 -248 
Q 256 531 256 1544 
Q 256 2544 778 3314 
Q 1300 4084 2056 4334 
z
" transform="scale(0.015625)"/>
       <path id="TimesNewRomanPS-BoldMT-32" d="M 2650 0 
L 156 0 
L 156 69 
Q 1303 1434 1548 1906 
Q 1794 2378 1794 2828 
Q 1794 3156 1591 3373 
Q 1388 3591 1094 3591 
Q 613 3591 347 3109 
L 231 3150 
Q 400 3750 744 4037 
Q 1088 4325 1538 4325 
Q 1859 4325 2125 4175 
Q 2391 4025 2541 3764 
Q 2691 3503 2691 3275 
Q 2691 2859 2459 2431 
Q 2144 1853 1081 819 
L 1997 819 
Q 2334 819 2436 847 
Q 2538 875 2603 942 
Q 2669 1009 2775 1225 
L 2888 1225 
L 2650 0 
z
" transform="scale(0.015625)"/>
       <path id="TimesNewRomanPS-BoldMT-48" d="M 1750 2038 
L 1750 725 
Q 1750 400 1786 319 
Q 1822 238 1926 177 
Q 2031 116 2209 116 
L 2350 116 
L 2350 0 
L 134 0 
L 134 116 
L 275 116 
Q 459 116 572 181 
Q 653 225 697 331 
Q 731 406 731 725 
L 731 3513 
Q 731 3838 697 3919 
Q 663 4000 558 4061 
Q 453 4122 275 4122 
L 134 4122 
L 134 4238 
L 2350 4238 
L 2350 4122 
L 2209 4122 
Q 2025 4122 1913 4056 
Q 1831 4013 1784 3906 
Q 1750 3831 1750 3513 
L 1750 2313 
L 3247 2313 
L 3247 3513 
Q 3247 3838 3212 3919 
Q 3178 4000 3072 4061 
Q 2966 4122 2788 4122 
L 2650 4122 
L 2650 4238 
L 4863 4238 
L 4863 4122 
L 4725 4122 
Q 4538 4122 4428 4056 
Q 4347 4013 4300 3906 
Q 4266 3831 4266 3513 
L 4266 725 
Q 4266 400 4300 319 
Q 4334 238 4440 177 
Q 4547 116 4725 116 
L 4863 116 
L 4863 0 
L 2650 0 
L 2650 116 
L 2788 116 
Q 2975 116 3084 181 
Q 3166 225 3213 331 
Q 3247 406 3247 725 
L 3247 2038 
L 1750 2038 
z
" transform="scale(0.015625)"/>
       <path id="TimesNewRomanPS-BoldMT-6f" d="M 1594 3009 
Q 1975 3009 2303 2812 
Q 2631 2616 2801 2253 
Q 2972 1891 2972 1459 
Q 2972 838 2656 419 
Q 2275 -88 1603 -88 
Q 944 -88 587 375 
Q 231 838 231 1447 
Q 231 2075 595 2542 
Q 959 3009 1594 3009 
z
M 1606 2788 
Q 1447 2788 1333 2667 
Q 1219 2547 1183 2192 
Q 1147 1838 1147 1206 
Q 1147 872 1191 581 
Q 1225 359 1337 243 
Q 1450 128 1594 128 
Q 1734 128 1828 206 
Q 1950 313 1991 503 
Q 2053 800 2053 1703 
Q 2053 2234 1993 2432 
Q 1934 2631 1819 2722 
Q 1738 2788 1606 2788 
z
" transform="scale(0.015625)"/>
       <path id="TimesNewRomanPS-BoldMT-75" d="M 3038 2922 
L 3038 634 
Q 3038 300 3100 217 
Q 3163 134 3353 113 
L 3353 0 
L 2163 0 
L 2163 391 
Q 1953 141 1743 26 
Q 1534 -88 1275 -88 
Q 1028 -88 836 64 
Q 644 216 578 419 
Q 513 622 513 1128 
L 513 2288 
Q 513 2619 452 2700 
Q 391 2781 197 2806 
L 197 2922 
L 1388 2922 
L 1388 925 
Q 1388 613 1417 522 
Q 1447 431 1511 384 
Q 1575 338 1659 338 
Q 1772 338 1863 397 
Q 1988 478 2163 725 
L 2163 2288 
Q 2163 2619 2102 2700 
Q 2041 2781 1847 2806 
L 1847 2922 
L 3038 2922 
z
" transform="scale(0.015625)"/>
       <path id="TimesNewRomanPS-BoldMT-73" d="M 2063 3003 
L 2109 2006 
L 2003 2006 
Q 1813 2450 1608 2612 
Q 1403 2775 1200 2775 
Q 1072 2775 981 2689 
Q 891 2603 891 2491 
Q 891 2406 953 2328 
Q 1053 2200 1512 1889 
Q 1972 1578 2117 1361 
Q 2263 1144 2263 875 
Q 2263 631 2141 397 
Q 2019 163 1797 37 
Q 1575 -88 1306 -88 
Q 1097 -88 747 44 
Q 653 78 619 78 
Q 516 78 447 -78 
L 344 -78 
L 294 972 
L 400 972 
Q 541 559 786 353 
Q 1031 147 1250 147 
Q 1400 147 1495 239 
Q 1591 331 1591 463 
Q 1591 613 1497 722 
Q 1403 831 1078 1053 
Q 600 1384 459 1559 
Q 253 1816 253 2125 
Q 253 2463 486 2736 
Q 719 3009 1159 3009 
Q 1397 3009 1619 2894 
Q 1703 2847 1756 2847 
Q 1813 2847 1847 2870 
Q 1881 2894 1956 3003 
L 2063 3003 
z
" transform="scale(0.015625)"/>
       <path id="TimesNewRomanPS-BoldMT-49" d="M 2344 116 
L 2344 0 
L 128 0 
L 128 116 
L 269 116 
Q 453 116 566 181 
Q 647 225 691 331 
Q 725 406 725 725 
L 725 3513 
Q 725 3838 690 3919 
Q 656 4000 551 4061 
Q 447 4122 269 4122 
L 128 4122 
L 128 4238 
L 2344 4238 
L 2344 4122 
L 2203 4122 
Q 2019 4122 1906 4056 
Q 1825 4013 1778 3906 
Q 1744 3831 1744 3513 
L 1744 725 
Q 1744 400 1780 319 
Q 1816 238 1920 177 
Q 2025 116 2203 116 
L 2344 116 
z
" transform="scale(0.015625)"/>
       <path id="TimesNewRomanPS-BoldMT-61" d="M 1828 431 
Q 1294 -41 869 -41 
Q 619 -41 453 123 
Q 288 288 288 534 
Q 288 869 575 1136 
Q 863 1403 1828 1847 
L 1828 2141 
Q 1828 2472 1792 2558 
Q 1756 2644 1656 2708 
Q 1556 2772 1431 2772 
Q 1228 2772 1097 2681 
Q 1016 2625 1016 2550 
Q 1016 2484 1103 2388 
Q 1222 2253 1222 2128 
Q 1222 1975 1108 1867 
Q 994 1759 809 1759 
Q 613 1759 480 1878 
Q 347 1997 347 2156 
Q 347 2381 525 2586 
Q 703 2791 1022 2900 
Q 1341 3009 1684 3009 
Q 2100 3009 2342 2832 
Q 2584 2656 2656 2450 
Q 2700 2319 2700 1847 
L 2700 713 
Q 2700 513 2715 461 
Q 2731 409 2762 384 
Q 2794 359 2834 359 
Q 2916 359 3000 475 
L 3094 400 
Q 2938 169 2770 64 
Q 2603 -41 2391 -41 
Q 2141 -41 2000 76 
Q 1859 194 1828 431 
z
M 1828 659 
L 1828 1638 
Q 1450 1416 1266 1163 
Q 1144 994 1144 822 
Q 1144 678 1247 569 
Q 1325 484 1466 484 
Q 1622 484 1828 659 
z
" transform="scale(0.015625)"/>
       <path id="TimesNewRomanPS-BoldMT-6c" d="M 1359 4238 
L 1359 606 
Q 1359 297 1431 211 
Q 1503 125 1713 113 
L 1713 0 
L 134 0 
L 134 113 
Q 328 119 422 225 
Q 484 297 484 606 
L 484 3631 
Q 484 3938 412 4023 
Q 341 4109 134 4122 
L 134 4238 
L 1359 4238 
z
" transform="scale(0.015625)"/>
       <path id="TimesNewRomanPS-BoldMT-29" d="M 78 -1281 
L 78 -1138 
Q 403 -922 556 -719 
Q 766 -438 888 0 
Q 1038 550 1038 1531 
Q 1038 2456 902 2967 
Q 766 3478 531 3794 
Q 369 4013 78 4178 
L 78 4334 
Q 831 4081 1354 3301 
Q 1878 2522 1878 1509 
Q 1878 513 1354 -257 
Q 831 -1028 78 -1281 
z
" transform="scale(0.015625)"/>
      </defs>
      <use xlink:href="#TimesNewRomanPS-BoldMT-45"/>
      <use xlink:href="#TimesNewRomanPS-BoldMT-78" x="66.699219"/>
      <use xlink:href="#TimesNewRomanPS-BoldMT-70" x="116.699219"/>
      <use xlink:href="#TimesNewRomanPS-BoldMT-65" x="172.314453"/>
      <use xlink:href="#TimesNewRomanPS-BoldMT-72" x="216.699219"/>
      <use xlink:href="#TimesNewRomanPS-BoldMT-69" x="261.083984"/>
      <use xlink:href="#TimesNewRomanPS-BoldMT-6d" x="288.867188"/>
      <use xlink:href="#TimesNewRomanPS-BoldMT-65" x="372.167969"/>
      <use xlink:href="#TimesNewRomanPS-BoldMT-6e" x="416.552734"/>
      <use xlink:href="#TimesNewRomanPS-BoldMT-74" x="472.167969"/>
      <use xlink:href="#TimesNewRomanPS-BoldMT-20" x="505.46875"/>
      <use xlink:href="#TimesNewRomanPS-BoldMT-54" x="528.71875"/>
      <use xlink:href="#TimesNewRomanPS-BoldMT-69" x="593.667969"/>
      <use xlink:href="#TimesNewRomanPS-BoldMT-6d" x="621.451172"/>
      <use xlink:href="#TimesNewRomanPS-BoldMT-65" x="704.751953"/>
      <use xlink:href="#TimesNewRomanPS-BoldMT-20" x="749.136719"/>
      <use xlink:href="#TimesNewRomanPS-BoldMT-28" x="774.136719"/>
      <use xlink:href="#TimesNewRomanPS-BoldMT-31" x="807.4375"/>
      <use xlink:href="#TimesNewRomanPS-BoldMT-32" x="857.4375"/>
      <use xlink:href="#TimesNewRomanPS-BoldMT-20" x="907.4375"/>
      <use xlink:href="#TimesNewRomanPS-BoldMT-48" x="932.4375"/>
      <use xlink:href="#TimesNewRomanPS-BoldMT-6f" x="1010.220703"/>
      <use xlink:href="#TimesNewRomanPS-BoldMT-75" x="1060.220703"/>
      <use xlink:href="#TimesNewRomanPS-BoldMT-72" x="1115.835938"/>
      <use xlink:href="#TimesNewRomanPS-BoldMT-73" x="1160.220703"/>
      <use xlink:href="#TimesNewRomanPS-BoldMT-20" x="1199.136719"/>
      <use xlink:href="#TimesNewRomanPS-BoldMT-49" x="1224.136719"/>
      <use xlink:href="#TimesNewRomanPS-BoldMT-6e" x="1263.052734"/>
      <use xlink:href="#TimesNewRomanPS-BoldMT-20" x="1318.667969"/>
      <use xlink:href="#TimesNewRomanPS-BoldMT-54" x="1341.917969"/>
      <use xlink:href="#TimesNewRomanPS-BoldMT-6f" x="1399.492188"/>
      <use xlink:href="#TimesNewRomanPS-BoldMT-74" x="1449.492188"/>
      <use xlink:href="#TimesNewRomanPS-BoldMT-61" x="1482.792969"/>
      <use xlink:href="#TimesNewRomanPS-BoldMT-6c" x="1532.792969"/>
      <use xlink:href="#TimesNewRomanPS-BoldMT-29" x="1560.576172"/>
     </g>
    </g>
   </g>
   <g id="matplotlib.axis_2">
    <g id="ytick_1">
     <g id="line2d_7">
      <path d="M 37.235938 188.223156 
L 346.077781 188.223156 
" clip-path="url(#p1e384eefa9)" style="fill: none; stroke-dasharray: 1.85,0.8; stroke-dashoffset: 0; stroke: #b0b0b0; stroke-width: 0.5"/>
     </g>
     <g id="line2d_8">
      <defs>
       <path id="ma18aa3b0d7" d="M 0 0 
L -3.5 0 
" style="stroke: #000000; stroke-width: 0.8"/>
      </defs>
      <g>
       <use xlink:href="#ma18aa3b0d7" x="37.235938" y="188.223156" style="stroke: #000000; stroke-width: 0.8"/>
      </g>
     </g>
     <g id="text_5">
      <!-- 0 -->
      <g transform="translate(24.135938 190.871906) scale(0.08 -0.08)">
       <use xlink:href="#TimesNewRomanPS-BoldMT-30"/>
      </g>
     </g>
    </g>
    <g id="ytick_2">
     <g id="line2d_9">
      <path d="M 37.235938 153.038869 
L 346.077781 153.038869 
" clip-path="url(#p1e384eefa9)" style="fill: none; stroke-dasharray: 1.85,0.8; stroke-dashoffset: 0; stroke: #b0b0b0; stroke-width: 0.5"/>
     </g>
     <g id="line2d_10">
      <g>
       <use xlink:href="#ma18aa3b0d7" x="37.235938" y="153.038869" style="stroke: #000000; stroke-width: 0.8"/>
      </g>
     </g>
     <g id="text_6">
      <!-- 10 -->
      <g transform="translate(20.135938 155.687619) scale(0.08 -0.08)">
       <use xlink:href="#TimesNewRomanPS-BoldMT-31"/>
       <use xlink:href="#TimesNewRomanPS-BoldMT-30" x="50"/>
      </g>
     </g>
    </g>
    <g id="ytick_3">
     <g id="line2d_11">
      <path d="M 37.235938 117.854582 
L 346.077781 117.854582 
" clip-path="url(#p1e384eefa9)" style="fill: none; stroke-dasharray: 1.85,0.8; stroke-dashoffset: 0; stroke: #b0b0b0; stroke-width: 0.5"/>
     </g>
     <g id="line2d_12">
      <g>
       <use xlink:href="#ma18aa3b0d7" x="37.235938" y="117.854582" style="stroke: #000000; stroke-width: 0.8"/>
      </g>
     </g>
     <g id="text_7">
      <!-- 20 -->
      <g transform="translate(20.135938 120.503332) scale(0.08 -0.08)">
       <use xlink:href="#TimesNewRomanPS-BoldMT-32"/>
       <use xlink:href="#TimesNewRomanPS-BoldMT-30" x="50"/>
      </g>
     </g>
    </g>
    <g id="ytick_4">
     <g id="line2d_13">
      <path d="M 37.235938 82.670295 
L 346.077781 82.670295 
" clip-path="url(#p1e384eefa9)" style="fill: none; stroke-dasharray: 1.85,0.8; stroke-dashoffset: 0; stroke: #b0b0b0; stroke-width: 0.5"/>
     </g>
     <g id="line2d_14">
      <g>
       <use xlink:href="#ma18aa3b0d7" x="37.235938" y="82.670295" style="stroke: #000000; stroke-width: 0.8"/>
      </g>
     </g>
     <g id="text_8">
      <!-- 30 -->
      <g transform="translate(20.135938 85.319045) scale(0.08 -0.08)">
       <defs>
        <path id="TimesNewRomanPS-BoldMT-33" d="M 947 2125 
L 947 2234 
Q 1303 2338 1440 2427 
Q 1578 2516 1678 2698 
Q 1778 2881 1778 3069 
Q 1778 3328 1589 3514 
Q 1400 3700 1119 3700 
Q 681 3700 375 3238 
L 259 3278 
Q 484 3800 836 4062 
Q 1188 4325 1619 4325 
Q 2059 4325 2345 4056 
Q 2631 3788 2631 3428 
Q 2631 3194 2498 2976 
Q 2366 2759 2081 2594 
Q 2447 2416 2639 2155 
Q 2831 1894 2831 1500 
Q 2831 838 2351 373 
Q 1872 -91 1066 -91 
Q 528 -91 281 88 
Q 103 213 103 409 
Q 103 553 206 654 
Q 309 756 444 756 
Q 547 756 638 713 
Q 688 688 992 439 
Q 1297 191 1563 191 
Q 1794 191 1959 373 
Q 2125 556 2125 838 
Q 2125 1266 1825 1627 
Q 1525 1988 947 2125 
z
" transform="scale(0.015625)"/>
       </defs>
       <use xlink:href="#TimesNewRomanPS-BoldMT-33"/>
       <use xlink:href="#TimesNewRomanPS-BoldMT-30" x="50"/>
      </g>
     </g>
    </g>
    <g id="ytick_5">
     <g id="line2d_15">
      <path d="M 37.235938 47.486008 
L 346.077781 47.486008 
" clip-path="url(#p1e384eefa9)" style="fill: none; stroke-dasharray: 1.85,0.8; stroke-dashoffset: 0; stroke: #b0b0b0; stroke-width: 0.5"/>
     </g>
     <g id="line2d_16">
      <g>
       <use xlink:href="#ma18aa3b0d7" x="37.235938" y="47.486008" style="stroke: #000000; stroke-width: 0.8"/>
      </g>
     </g>
     <g id="text_9">
      <!-- 40 -->
      <g transform="translate(20.135938 50.134758) scale(0.08 -0.08)">
       <defs>
        <path id="TimesNewRomanPS-BoldMT-34" d="M 159 1597 
L 2172 4325 
L 2553 4325 
L 2553 1597 
L 2941 1597 
L 2941 950 
L 2553 950 
L 2553 0 
L 1694 0 
L 1694 950 
L 159 950 
L 159 1597 
z
M 463 1597 
L 1694 1597 
L 1694 3269 
L 463 1597 
z
" transform="scale(0.015625)"/>
       </defs>
       <use xlink:href="#TimesNewRomanPS-BoldMT-34"/>
       <use xlink:href="#TimesNewRomanPS-BoldMT-30" x="50"/>
      </g>
     </g>
    </g>
    <g id="ytick_6">
     <g id="line2d_17">
      <path d="M 37.235938 12.301722 
L 346.077781 12.301722 
" clip-path="url(#p1e384eefa9)" style="fill: none; stroke-dasharray: 1.85,0.8; stroke-dashoffset: 0; stroke: #b0b0b0; stroke-width: 0.5"/>
     </g>
     <g id="line2d_18">
      <g>
       <use xlink:href="#ma18aa3b0d7" x="37.235938" y="12.301722" style="stroke: #000000; stroke-width: 0.8"/>
      </g>
     </g>
     <g id="text_10">
      <!-- 50 -->
      <g transform="translate(20.135938 14.950472) scale(0.08 -0.08)">
       <use xlink:href="#TimesNewRomanPS-BoldMT-35"/>
       <use xlink:href="#TimesNewRomanPS-BoldMT-30" x="50"/>
      </g>
     </g>
    </g>
    <g id="text_11">
     <!-- Version-distinct Discrepancy Detection Number -->
     <g transform="translate(13.978125 203.822434) rotate(-90) scale(0.1 -0.1)">
      <defs>
       <path id="TimesNewRomanPS-BoldMT-56" d="M 4556 4238 
L 4556 4122 
Q 4325 4084 4144 3875 
Q 4013 3719 3753 3141 
L 2294 -97 
L 2191 -97 
L 738 3272 
Q 475 3881 386 3987 
Q 297 4094 50 4122 
L 50 4238 
L 2081 4238 
L 2081 4122 
L 2013 4122 
Q 1738 4122 1638 4053 
Q 1566 4006 1566 3916 
Q 1566 3859 1591 3782 
Q 1616 3706 1759 3372 
L 2663 1263 
L 3500 3141 
Q 3650 3481 3684 3597 
Q 3719 3713 3719 3794 
Q 3719 3888 3669 3959 
Q 3619 4031 3522 4069 
Q 3388 4122 3166 4122 
L 3166 4238 
L 4556 4238 
z
" transform="scale(0.015625)"/>
       <path id="TimesNewRomanPS-BoldMT-2d" d="M 1978 1147 
L 156 1147 
L 156 1794 
L 1978 1794 
L 1978 1147 
z
" transform="scale(0.015625)"/>
       <path id="TimesNewRomanPS-BoldMT-64" d="M 3056 4238 
L 3056 875 
Q 3056 534 3075 472 
Q 3100 369 3170 319 
Q 3241 269 3416 256 
L 3416 153 
L 2181 -88 
L 2181 375 
Q 1959 106 1786 9 
Q 1613 -88 1394 -88 
Q 834 -88 509 413 
Q 247 819 247 1409 
Q 247 1881 409 2254 
Q 572 2628 855 2818 
Q 1138 3009 1463 3009 
Q 1672 3009 1834 2928 
Q 1997 2847 2181 2644 
L 2181 3525 
Q 2181 3859 2153 3928 
Q 2116 4019 2041 4062 
Q 1966 4106 1759 4106 
L 1759 4238 
L 3056 4238 
z
M 2181 2256 
Q 1950 2700 1616 2700 
Q 1500 2700 1425 2638 
Q 1309 2541 1236 2297 
Q 1163 2053 1163 1550 
Q 1163 997 1244 731 
Q 1325 466 1466 347 
Q 1538 288 1663 288 
Q 1938 288 2181 719 
L 2181 2256 
z
" transform="scale(0.015625)"/>
       <path id="TimesNewRomanPS-BoldMT-63" d="M 2600 753 
L 2697 678 
Q 2491 291 2183 101 
Q 1875 -88 1528 -88 
Q 944 -88 594 353 
Q 244 794 244 1413 
Q 244 2009 563 2463 
Q 947 3009 1622 3009 
Q 2075 3009 2342 2781 
Q 2609 2553 2609 2272 
Q 2609 2094 2501 1987 
Q 2394 1881 2219 1881 
Q 2034 1881 1914 2003 
Q 1794 2125 1766 2438 
Q 1747 2634 1675 2713 
Q 1603 2791 1506 2791 
Q 1356 2791 1250 2631 
Q 1088 2391 1088 1894 
Q 1088 1481 1219 1104 
Q 1350 728 1578 544 
Q 1750 409 1984 409 
Q 2138 409 2275 481 
Q 2413 553 2600 753 
z
" transform="scale(0.015625)"/>
       <path id="TimesNewRomanPS-BoldMT-44" d="M 84 0 
L 84 116 
L 225 116 
Q 409 116 507 173 
Q 606 231 653 331 
Q 681 397 681 725 
L 681 3513 
Q 681 3838 647 3919 
Q 613 4000 508 4061 
Q 403 4122 225 4122 
L 84 4122 
L 84 4238 
L 1981 4238 
Q 2741 4238 3203 4031 
Q 3769 3778 4061 3265 
Q 4353 2753 4353 2106 
Q 4353 1659 4209 1282 
Q 4066 906 3837 661 
Q 3609 416 3311 267 
Q 3013 119 2581 38 
Q 2391 0 1981 0 
L 84 0 
z
M 1700 3997 
L 1700 691 
Q 1700 428 1725 368 
Q 1750 309 1809 278 
Q 1894 231 2053 231 
Q 2575 231 2850 588 
Q 3225 1069 3225 2081 
Q 3225 2897 2969 3384 
Q 2766 3766 2447 3903 
Q 2222 4000 1700 3997 
z
" transform="scale(0.015625)"/>
       <path id="TimesNewRomanPS-BoldMT-79" d="M 1556 -119 
L 613 2047 
Q 400 2538 298 2650 
Q 197 2763 53 2806 
L 53 2922 
L 1606 2922 
L 1606 2806 
Q 1453 2800 1390 2747 
Q 1328 2694 1328 2619 
Q 1328 2500 1484 2150 
L 1984 1006 
L 2325 1891 
Q 2509 2363 2509 2547 
Q 2509 2663 2432 2731 
Q 2356 2800 2163 2806 
L 2163 2922 
L 3141 2922 
L 3141 2806 
Q 2997 2791 2906 2695 
Q 2816 2600 2603 2047 
L 1769 -119 
Q 1453 -931 1300 -1119 
Q 1084 -1381 759 -1381 
Q 500 -1381 339 -1232 
Q 178 -1084 178 -875 
Q 178 -694 289 -575 
Q 400 -456 563 -456 
Q 719 -456 814 -556 
Q 909 -656 913 -866 
Q 916 -984 941 -1019 
Q 966 -1053 1013 -1053 
Q 1088 -1053 1172 -963 
Q 1297 -831 1466 -363 
L 1556 -119 
z
" transform="scale(0.015625)"/>
       <path id="TimesNewRomanPS-BoldMT-4e" d="M 1594 4238 
L 3684 1609 
L 3684 3431 
Q 3684 3813 3575 3947 
Q 3425 4128 3072 4122 
L 3072 4238 
L 4472 4238 
L 4472 4122 
Q 4203 4088 4111 4033 
Q 4019 3978 3967 3854 
Q 3916 3731 3916 3431 
L 3916 -97 
L 3809 -97 
L 944 3431 
L 944 738 
Q 944 372 1111 244 
Q 1278 116 1494 116 
L 1594 116 
L 1594 0 
L 91 0 
L 91 116 
Q 441 119 578 259 
Q 716 400 716 738 
L 716 3728 
L 625 3841 
Q 491 4009 387 4062 
Q 284 4116 91 4122 
L 91 4238 
L 1594 4238 
z
" transform="scale(0.015625)"/>
       <path id="TimesNewRomanPS-BoldMT-62" d="M 1347 4238 
L 1347 2628 
Q 1716 3009 2153 3009 
Q 2453 3009 2718 2832 
Q 2984 2656 3134 2331 
Q 3284 2006 3284 1581 
Q 3284 1103 3093 712 
Q 2903 322 2584 117 
Q 2266 -88 1856 -88 
Q 1619 -88 1434 -12 
Q 1250 63 1072 231 
L 588 -84 
L 481 -84 
L 481 3631 
Q 481 3884 459 3944 
Q 428 4031 361 4073 
Q 294 4116 134 4122 
L 134 4238 
L 1347 4238 
z
M 1347 2350 
L 1347 1050 
Q 1347 653 1366 544 
Q 1397 359 1515 245 
Q 1634 131 1819 131 
Q 1978 131 2092 222 
Q 2206 313 2282 581 
Q 2359 850 2359 1550 
Q 2359 2222 2191 2472 
Q 2069 2653 1863 2653 
Q 1594 2653 1347 2350 
z
" transform="scale(0.015625)"/>
      </defs>
      <use xlink:href="#TimesNewRomanPS-BoldMT-56"/>
      <use xlink:href="#TimesNewRomanPS-BoldMT-65" x="63.091797"/>
      <use xlink:href="#TimesNewRomanPS-BoldMT-72" x="107.476562"/>
      <use xlink:href="#TimesNewRomanPS-BoldMT-73" x="151.861328"/>
      <use xlink:href="#TimesNewRomanPS-BoldMT-69" x="190.777344"/>
      <use xlink:href="#TimesNewRomanPS-BoldMT-6f" x="218.560547"/>
      <use xlink:href="#TimesNewRomanPS-BoldMT-6e" x="268.560547"/>
      <use xlink:href="#TimesNewRomanPS-BoldMT-2d" x="324.175781"/>
      <use xlink:href="#TimesNewRomanPS-BoldMT-64" x="357.476562"/>
      <use xlink:href="#TimesNewRomanPS-BoldMT-69" x="413.091797"/>
      <use xlink:href="#TimesNewRomanPS-BoldMT-73" x="440.875"/>
      <use xlink:href="#TimesNewRomanPS-BoldMT-74" x="479.791016"/>
      <use xlink:href="#TimesNewRomanPS-BoldMT-69" x="513.091797"/>
      <use xlink:href="#TimesNewRomanPS-BoldMT-6e" x="540.875"/>
      <use xlink:href="#TimesNewRomanPS-BoldMT-63" x="596.490234"/>
      <use xlink:href="#TimesNewRomanPS-BoldMT-74" x="640.875"/>
      <use xlink:href="#TimesNewRomanPS-BoldMT-20" x="674.175781"/>
      <use xlink:href="#TimesNewRomanPS-BoldMT-44" x="699.175781"/>
      <use xlink:href="#TimesNewRomanPS-BoldMT-69" x="771.392578"/>
      <use xlink:href="#TimesNewRomanPS-BoldMT-73" x="799.175781"/>
      <use xlink:href="#TimesNewRomanPS-BoldMT-63" x="838.091797"/>
      <use xlink:href="#TimesNewRomanPS-BoldMT-72" x="882.476562"/>
      <use xlink:href="#TimesNewRomanPS-BoldMT-65" x="925.111328"/>
      <use xlink:href="#TimesNewRomanPS-BoldMT-70" x="969.496094"/>
      <use xlink:href="#TimesNewRomanPS-BoldMT-61" x="1025.111328"/>
      <use xlink:href="#TimesNewRomanPS-BoldMT-6e" x="1075.111328"/>
      <use xlink:href="#TimesNewRomanPS-BoldMT-63" x="1130.726562"/>
      <use xlink:href="#TimesNewRomanPS-BoldMT-79" x="1175.111328"/>
      <use xlink:href="#TimesNewRomanPS-BoldMT-20" x="1225.111328"/>
      <use xlink:href="#TimesNewRomanPS-BoldMT-44" x="1250.111328"/>
      <use xlink:href="#TimesNewRomanPS-BoldMT-65" x="1322.328125"/>
      <use xlink:href="#TimesNewRomanPS-BoldMT-74" x="1366.712891"/>
      <use xlink:href="#TimesNewRomanPS-BoldMT-65" x="1400.013672"/>
      <use xlink:href="#TimesNewRomanPS-BoldMT-63" x="1444.398438"/>
      <use xlink:href="#TimesNewRomanPS-BoldMT-74" x="1488.783203"/>
      <use xlink:href="#TimesNewRomanPS-BoldMT-69" x="1522.083984"/>
      <use xlink:href="#TimesNewRomanPS-BoldMT-6f" x="1549.867188"/>
      <use xlink:href="#TimesNewRomanPS-BoldMT-6e" x="1599.867188"/>
      <use xlink:href="#TimesNewRomanPS-BoldMT-20" x="1655.482422"/>
      <use xlink:href="#TimesNewRomanPS-BoldMT-4e" x="1680.482422"/>
      <use xlink:href="#TimesNewRomanPS-BoldMT-75" x="1752.699219"/>
      <use xlink:href="#TimesNewRomanPS-BoldMT-6d" x="1808.314453"/>
      <use xlink:href="#TimesNewRomanPS-BoldMT-62" x="1891.615234"/>
      <use xlink:href="#TimesNewRomanPS-BoldMT-65" x="1947.230469"/>
      <use xlink:href="#TimesNewRomanPS-BoldMT-72" x="1991.615234"/>
     </g>
    </g>
   </g>
   <g id="line2d_19">
    <path d="M 51.274203 188.223156 
L 53.707557 188.223156 
L 53.819865 184.704727 
L 53.925934 184.704727 
L 54.038243 181.186298 
L 57.151688 181.186298 
L 57.263996 177.66787 
L 57.682034 177.66787 
L 57.794342 174.149441 
L 58.798881 174.149441 
L 58.917429 167.112584 
L 60.502228 167.112584 
L 60.614537 163.594155 
L 65.942957 163.594155 
L 66.055265 160.075726 
L 66.959974 160.075726 
L 67.072282 156.557298 
L 67.103479 156.557298 
L 67.215788 153.038869 
L 67.802288 153.038869 
L 67.914597 149.52044 
L 68.313917 149.52044 
L 68.426225 146.002012 
L 70.397865 146.002012 
L 70.510174 142.483583 
L 71.102914 142.483583 
L 71.215223 138.965154 
L 90.48863 138.965154 
L 90.600938 135.446726 
L 97.476722 135.446726 
L 97.58903 131.928297 
L 105.68149 131.928297 
L 105.793799 128.409868 
L 106.087049 128.409868 
L 106.199358 124.89144 
L 110.984953 124.89144 
L 111.097262 121.373011 
L 111.490342 121.373011 
L 111.60265 117.854582 
L 113.174971 117.854582 
L 113.28728 114.336153 
L 127.406969 114.336153 
L 127.519278 110.817725 
L 130.089897 110.817725 
L 130.202206 107.299296 
L 130.788706 107.299296 
L 130.901015 103.780867 
L 139.455188 103.780867 
L 139.567497 100.262439 
L 140.004253 100.262439 
L 140.116561 96.74401 
L 141.139818 96.74401 
L 141.252126 93.225581 
L 141.745036 93.225581 
L 141.857345 89.707153 
L 155.771135 89.707153 
L 155.883444 86.188724 
L 160.16365 86.188724 
L 160.275959 82.670295 
L 164.543686 82.670295 
L 164.655995 79.151867 
L 168.979877 79.151867 
L 169.092185 75.633438 
L 174.751292 75.633438 
L 174.863601 72.115009 
L 188.565252 72.115009 
L 188.677561 68.596581 
L 191.703654 68.596581 
L 191.815963 65.078152 
L 196.857372 65.078152 
L 196.969681 61.559723 
L 202.653745 61.559723 
L 202.766053 58.041295 
L 203.140415 58.041295 
L 203.252724 54.522866 
L 209.648076 54.522866 
L 209.760385 51.004437 
L 214.464868 51.004437 
L 214.577177 47.486008 
L 224.847176 47.486008 
L 224.959485 43.96758 
L 230.92432 43.96758 
L 231.036629 40.449151 
L 232.933397 40.449151 
L 233.045705 36.930722 
L 238.954387 36.930722 
L 239.066695 33.412294 
L 281.762689 33.412294 
L 281.874998 29.893865 
L 283.104153 29.893865 
L 283.216462 26.375436 
L 292.51312 26.375436 
L 292.625429 22.857008 
L 295.008867 22.857008 
L 295.121176 19.338579 
L 315.536387 19.338579 
L 315.648696 15.82015 
L 332.039515 15.82015 
L 332.039515 15.82015 
" clip-path="url(#p1e384eefa9)" style="fill: none; stroke: #1f77b4; stroke-width: 1.4; stroke-linecap: square"/>
   </g>
   <g id="line2d_20">
    <path d="M 51.274203 188.223156 
L 53.233365 188.223156 
L 53.345673 184.704727 
L 53.607727 184.704727 
L 53.720035 181.186298 
L 60.539664 181.186298 
L 60.651973 177.66787 
L 65.088163 177.66787 
L 65.200472 174.149441 
L 65.549877 174.149441 
L 65.662185 170.631012 
L 68.619646 170.631012 
L 68.731954 167.112584 
L 69.680338 167.112584 
L 69.792647 163.594155 
L 73.523789 163.594155 
L 73.636097 160.075726 
L 73.742167 160.075726 
L 73.854475 156.557298 
L 88.629298 156.557298 
L 88.741607 153.038869 
L 90.831795 153.038869 
L 90.944104 149.52044 
L 99.254942 149.52044 
L 99.36725 146.002012 
L 192.14041 146.002012 
L 192.252719 142.483583 
L 211.756982 142.483583 
L 211.869291 138.965154 
L 212.056472 138.965154 
L 212.168781 135.446726 
L 281.226104 135.446726 
L 281.338412 131.928297 
L 283.116632 131.928297 
L 283.228941 128.409868 
L 332.039515 128.409868 
L 332.039515 128.409868 
" clip-path="url(#p1e384eefa9)" style="fill: none; stroke: #ff7f0e; stroke-width: 1.4; stroke-linecap: square"/>
   </g>
   <g id="line2d_21">
    <path d="M 51.274203 188.223156 
L 60.758042 188.223156 
L 60.870351 184.704727 
L 62.923103 184.704727 
L 63.035411 181.186298 
L 67.68998 181.186298 
L 67.802288 177.66787 
L 68.070581 177.66787 
L 68.18289 174.149441 
L 76.019536 174.149441 
L 76.131844 170.631012 
L 79.969056 170.631012 
L 80.081364 167.112584 
L 80.524359 167.112584 
L 80.636668 163.594155 
L 83.48182 163.594155 
L 83.594128 160.075726 
L 93.15284 160.075726 
L 93.265148 156.557298 
L 101.856758 156.557298 
L 101.969067 153.038869 
L 112.407529 153.038869 
L 112.519837 149.52044 
L 115.814224 149.52044 
L 115.926532 146.002012 
L 121.429655 146.002012 
L 121.541963 142.483583 
L 129.715535 142.483583 
L 129.827844 138.965154 
L 135.936185 138.965154 
L 136.048493 135.446726 
L 141.289562 135.446726 
L 141.401871 131.928297 
L 185.102403 131.928297 
L 185.214712 128.409868 
L 193.013922 128.409868 
L 193.12623 124.89144 
L 197.974219 124.89144 
L 198.086528 121.373011 
L 210.10355 121.373011 
L 210.215859 117.854582 
L 217.696861 117.854582 
L 217.809169 114.336153 
L 218.4955 114.336153 
L 218.607808 110.817725 
L 309.078641 110.817725 
L 309.19095 107.299296 
L 332.039515 107.299296 
L 332.039515 107.299296 
" clip-path="url(#p1e384eefa9)" style="fill: none; stroke: #2ca02c; stroke-width: 1.4; stroke-linecap: square"/>
   </g>
   <g id="patch_3">
    <path d="M 37.235938 196.843306 
L 37.235938 7.2 
" style="fill: none; stroke: #000000; stroke-width: 0.8; stroke-linejoin: miter; stroke-linecap: square"/>
   </g>
   <g id="patch_4">
    <path d="M 346.077781 196.843306 
L 346.077781 7.2 
" style="fill: none; stroke: #000000; stroke-width: 0.8; stroke-linejoin: miter; stroke-linecap: square"/>
   </g>
   <g id="patch_5">
    <path d="M 37.235938 196.843306 
L 346.077781 196.843306 
" style="fill: none; stroke: #000000; stroke-width: 0.8; stroke-linejoin: miter; stroke-linecap: square"/>
   </g>
   <g id="patch_6">
    <path d="M 37.235938 7.2 
L 346.077781 7.2 
" style="fill: none; stroke: #000000; stroke-width: 0.8; stroke-linejoin: miter; stroke-linecap: square"/>
   </g>
   <g id="legend_1">
    <g id="patch_7">
     <path d="M 42.835938 47.53375 
L 108.435938 47.53375 
Q 110.035938 47.53375 110.035938 45.93375 
L 110.035938 12.8 
Q 110.035938 11.2 108.435938 11.2 
L 42.835938 11.2 
Q 41.235938 11.2 41.235938 12.8 
L 41.235938 45.93375 
Q 41.235938 47.53375 42.835938 47.53375 
z
" style="fill: #ffffff; opacity: 0.8; stroke: #cccccc; stroke-width: 0.24; stroke-linejoin: miter"/>
    </g>
    <g id="line2d_22">
     <path d="M 44.435938 17.2 
L 52.435938 17.2 
L 60.435938 17.2 
" style="fill: none; stroke: #1f77b4; stroke-width: 1.4; stroke-linecap: square"/>
    </g>
    <g id="text_12">
     <!--                      -->
     <g transform="translate(66.835938 20) scale(0.08 -0.08)">
      <use xlink:href="#TimesNewRomanPS-BoldMT-20"/>
      <use xlink:href="#TimesNewRomanPS-BoldMT-20" x="25"/>
      <use xlink:href="#TimesNewRomanPS-BoldMT-20" x="50"/>
      <use xlink:href="#TimesNewRomanPS-BoldMT-20" x="75"/>
      <use xlink:href="#TimesNewRomanPS-BoldMT-20" x="100"/>
      <use xlink:href="#TimesNewRomanPS-BoldMT-20" x="125"/>
      <use xlink:href="#TimesNewRomanPS-BoldMT-20" x="150"/>
      <use xlink:href="#TimesNewRomanPS-BoldMT-20" x="175"/>
      <use xlink:href="#TimesNewRomanPS-BoldMT-20" x="200"/>
      <use xlink:href="#TimesNewRomanPS-BoldMT-20" x="225"/>
      <use xlink:href="#TimesNewRomanPS-BoldMT-20" x="250"/>
      <use xlink:href="#TimesNewRomanPS-BoldMT-20" x="275"/>
      <use xlink:href="#TimesNewRomanPS-BoldMT-20" x="300"/>
      <use xlink:href="#TimesNewRomanPS-BoldMT-20" x="325"/>
      <use xlink:href="#TimesNewRomanPS-BoldMT-20" x="350"/>
      <use xlink:href="#TimesNewRomanPS-BoldMT-20" x="375"/>
      <use xlink:href="#TimesNewRomanPS-BoldMT-20" x="400"/>
      <use xlink:href="#TimesNewRomanPS-BoldMT-20" x="425"/>
      <use xlink:href="#TimesNewRomanPS-BoldMT-20" x="450"/>
      <use xlink:href="#TimesNewRomanPS-BoldMT-20" x="475"/>
     </g>
    </g>
    <g id="line2d_23">
     <path d="M 44.435938 28.51125 
L 52.435938 28.51125 
L 60.435938 28.51125 
" style="fill: none; stroke: #ff7f0e; stroke-width: 1.4; stroke-linecap: square"/>
    </g>
    <g id="text_13">
     <!--                      -->
     <g transform="translate(66.835938 31.31125) scale(0.08 -0.08)">
      <use xlink:href="#TimesNewRomanPS-BoldMT-20"/>
      <use xlink:href="#TimesNewRomanPS-BoldMT-20" x="25"/>
      <use xlink:href="#TimesNewRomanPS-BoldMT-20" x="50"/>
      <use xlink:href="#TimesNewRomanPS-BoldMT-20" x="75"/>
      <use xlink:href="#TimesNewRomanPS-BoldMT-20" x="100"/>
      <use xlink:href="#TimesNewRomanPS-BoldMT-20" x="125"/>
      <use xlink:href="#TimesNewRomanPS-BoldMT-20" x="150"/>
      <use xlink:href="#TimesNewRomanPS-BoldMT-20" x="175"/>
      <use xlink:href="#TimesNewRomanPS-BoldMT-20" x="200"/>
      <use xlink:href="#TimesNewRomanPS-BoldMT-20" x="225"/>
      <use xlink:href="#TimesNewRomanPS-BoldMT-20" x="250"/>
      <use xlink:href="#TimesNewRomanPS-BoldMT-20" x="275"/>
      <use xlink:href="#TimesNewRomanPS-BoldMT-20" x="300"/>
      <use xlink:href="#TimesNewRomanPS-BoldMT-20" x="325"/>
      <use xlink:href="#TimesNewRomanPS-BoldMT-20" x="350"/>
      <use xlink:href="#TimesNewRomanPS-BoldMT-20" x="375"/>
      <use xlink:href="#TimesNewRomanPS-BoldMT-20" x="400"/>
      <use xlink:href="#TimesNewRomanPS-BoldMT-20" x="425"/>
      <use xlink:href="#TimesNewRomanPS-BoldMT-20" x="450"/>
      <use xlink:href="#TimesNewRomanPS-BoldMT-20" x="475"/>
     </g>
    </g>
    <g id="line2d_24">
     <path d="M 44.435938 39.8225 
L 52.435938 39.8225 
L 60.435938 39.8225 
" style="fill: none; stroke: #2ca02c; stroke-width: 1.4; stroke-linecap: square"/>
    </g>
    <g id="text_14">
     <!--                      -->
     <g transform="translate(66.835938 42.6225) scale(0.08 -0.08)">
      <use xlink:href="#TimesNewRomanPS-BoldMT-20"/>
      <use xlink:href="#TimesNewRomanPS-BoldMT-20" x="25"/>
      <use xlink:href="#TimesNewRomanPS-BoldMT-20" x="50"/>
      <use xlink:href="#TimesNewRomanPS-BoldMT-20" x="75"/>
      <use xlink:href="#TimesNewRomanPS-BoldMT-20" x="100"/>
      <use xlink:href="#TimesNewRomanPS-BoldMT-20" x="125"/>
      <use xlink:href="#TimesNewRomanPS-BoldMT-20" x="150"/>
      <use xlink:href="#TimesNewRomanPS-BoldMT-20" x="175"/>
      <use xlink:href="#TimesNewRomanPS-BoldMT-20" x="200"/>
      <use xlink:href="#TimesNewRomanPS-BoldMT-20" x="225"/>
      <use xlink:href="#TimesNewRomanPS-BoldMT-20" x="250"/>
      <use xlink:href="#TimesNewRomanPS-BoldMT-20" x="275"/>
      <use xlink:href="#TimesNewRomanPS-BoldMT-20" x="300"/>
      <use xlink:href="#TimesNewRomanPS-BoldMT-20" x="325"/>
      <use xlink:href="#TimesNewRomanPS-BoldMT-20" x="350"/>
      <use xlink:href="#TimesNewRomanPS-BoldMT-20" x="375"/>
      <use xlink:href="#TimesNewRomanPS-BoldMT-20" x="400"/>
      <use xlink:href="#TimesNewRomanPS-BoldMT-20" x="425"/>
      <use xlink:href="#TimesNewRomanPS-BoldMT-20" x="450"/>
      <use xlink:href="#TimesNewRomanPS-BoldMT-20" x="475"/>
     </g>
    </g>
   </g>
  </g>
 </g>
 <defs>
  <clipPath id="p1e384eefa9">
   <rect x="37.235938" y="7.2" width="308.841843" height="189.643306"/>
  </clipPath>
 </defs>
</svg>
